<?xml version="1.0" standalone="no"?>
<!DOCTYPE svg PUBLIC "-//W3C//DTD SVG 20010904//EN"
 "http://www.w3.org/TR/2001/REC-SVG-20010904/DTD/svg10.dtd">
<svg version="1.0" xmlns="http://www.w3.org/2000/svg"
 width="300.000000pt" height="300.000000pt" viewBox="0 0 300.000000 300.000000"
 preserveAspectRatio="xMidYMid meet">
<metadata>
Created by potrace 1.10, written by Peter Selinger 2001-2011
</metadata>
<g transform="translate(0.000000,300.000000) scale(0.100000,-0.100000)"
fill="#000000" stroke="none">
<path d="M1675 2548 c-2 -7 -19 -70 -38 -140 -28 -105 -31 -128 -20 -133 21
-8 23 -7 23 11 0 13 6 11 26 -10 42 -41 106 -39 147 4 37 41 38 110 3 145 -30
30 -72 41 -107 28 l-27 -11 18 53 c10 30 16 56 13 59 -11 10 -33 6 -38 -6z
m94 -133 c79 -40 17 -164 -64 -127 -54 25 -55 104 -2 130 30 14 34 14 66 -3z"/>
<path d="M1255 2463 c3 -49 9 -106 12 -128 3 -22 3 -38 0 -35 -3 3 -22 25 -42
50 -85 103 -116 131 -135 125 -10 -3 -17 -11 -15 -18 2 -7 6 -61 10 -122 l7
-110 -29 36 c-52 65 -127 149 -132 149 -3 0 -12 -4 -20 -9 -20 -13 166 -223
194 -219 18 3 20 10 17 78 -1 41 -5 95 -7 120 l-6 45 28 -30 c15 -17 51 -56
78 -87 41 -46 55 -56 73 -51 15 3 21 11 18 22 -3 9 -8 73 -12 144 -6 117 -8
127 -26 127 -19 0 -19 -5 -13 -87z"/>
<path d="M1409 2461 c-24 -24 -29 -38 -29 -76 0 -63 39 -105 99 -105 45 0 91
17 91 35 0 21 -12 25 -34 10 -33 -23 -74 -18 -104 13 l-27 27 85 3 c47 2 89 7
93 11 12 12 -17 76 -44 95 -38 27 -96 21 -130 -13z m121 -26 c13 -14 21 -27
18 -30 -3 -3 -37 -5 -74 -3 l-69 3 27 28 c34 34 67 35 98 2z"/>
<path d="M1996 2278 l-87 -103 48 -42 c85 -75 148 -91 210 -53 63 38 85 132
44 189 -19 27 -113 111 -123 111 -3 0 -44 -46 -92 -102z m154 7 c38 -38 45
-52 45 -85 0 -30 -7 -47 -30 -70 -42 -44 -96 -42 -159 6 -40 32 -45 39 -33 53
74 89 121 141 126 141 4 0 27 -20 51 -45z"/>
<path d="M900 2075 c-16 -19 -6 -45 19 -45 23 0 35 28 20 46 -15 18 -24 18
-39 -1z"/>
<path d="M2174 2036 c-50 -50 -41 -115 22 -165 33 -26 44 -26 44 -1 0 11 -4
20 -10 20 -38 0 -67 89 -38 118 8 8 22 -7 56 -64 43 -73 45 -75 64 -57 38 34
50 71 38 108 -16 47 -54 75 -102 75 -32 0 -47 -7 -74 -34z m126 -16 c23 -23
26 -72 6 -89 -11 -10 -20 -2 -45 42 -17 30 -31 57 -31 61 0 14 52 4 70 -14z"/>
<path d="M657 2034 c-12 -12 -8 -49 13 -109 11 -32 18 -60 16 -62 -2 -2 -40
14 -85 36 -71 36 -81 39 -89 24 -8 -14 10 -26 120 -80 72 -35 134 -60 139 -57
16 9 10 24 -16 36 -23 10 -51 63 -37 72 4 2 31 7 60 11 36 5 57 13 67 28 8 11
13 22 11 24 -2 2 -32 -3 -67 -12 -35 -8 -69 -15 -75 -15 -6 0 -17 21 -24 48
-14 51 -23 66 -33 56z"/>
<path d="M2322 1828 c-63 -53 -82 -76 -80 -92 3 -19 13 -22 113 -33 60 -7 111
-10 113 -8 3 2 2 11 -1 19 -4 10 -31 16 -98 22 l-93 7 25 21 c14 12 46 40 73
62 37 32 46 45 39 57 -7 14 -22 5 -91 -55z"/>
<path d="M554 1765 c-9 -13 -18 -42 -21 -64 -5 -36 -2 -44 30 -76 28 -28 43
-35 75 -35 48 0 86 28 102 74 18 56 -11 126 -39 92 -8 -10 -9 -16 -1 -21 17
-10 12 -70 -8 -88 -25 -23 -85 -22 -105 1 -24 26 -21 77 4 101 22 20 19 41 -6
41 -8 0 -22 -11 -31 -25z"/>
<path d="M2335 1641 c-56 -24 -79 -94 -50 -155 18 -38 43 -44 37 -10 -14 76
-13 96 3 114 24 27 44 25 43 -2 -1 -13 -1 -51 0 -85 2 -70 9 -75 63 -47 42 21
64 75 49 119 -6 18 -19 40 -30 50 -22 19 -86 29 -115 16z m97 -48 c22 -20 23
-70 1 -95 -28 -32 -38 -21 -41 47 -4 70 5 80 40 48z"/>
<path d="M563 1540 c-12 -5 -29 -20 -39 -34 -28 -45 1 -153 36 -131 7 4 7 12
-1 26 -23 45 -8 109 27 109 9 0 14 -12 14 -35 0 -20 7 -51 14 -70 13 -30 20
-35 49 -35 56 0 81 54 53 112 -11 20 -13 34 -6 36 5 2 10 10 10 18 0 11 -16
14 -67 13 -38 0 -78 -4 -90 -9z m123 -55 c19 -29 12 -70 -13 -79 -24 -10 -43
19 -43 66 0 31 4 38 20 38 11 0 27 -11 36 -25z"/>
<path d="M2266 1394 c-4 -9 -5 -18 -4 -19 3 -3 277 -45 291 -45 4 0 7 9 7 20
0 11 -5 20 -10 20 -11 0 -193 26 -246 35 -24 4 -33 1 -38 -11z"/>
<path d="M704 1323 c1 -36 0 -37 -58 -54 -33 -10 -63 -16 -68 -13 -4 3 -8 16
-8 30 0 19 -4 24 -17 22 -19 -4 -20 -9 -9 -44 5 -17 2 -23 -18 -28 -18 -4 -23
-11 -19 -25 4 -16 9 -18 28 -11 19 7 24 5 28 -12 7 -25 33 -18 29 8 -2 16 7
23 50 33 77 20 98 32 105 58 7 29 -11 73 -30 73 -10 0 -14 -12 -13 -37z"/>
<path d="M2283 1306 c-37 -17 -63 -61 -63 -107 0 -48 56 -99 108 -99 75 0 132
82 101 145 -28 57 -93 84 -146 61z m91 -47 c61 -48 4 -147 -68 -119 -14 5 -32
21 -42 35 -14 21 -14 30 -4 55 22 53 68 65 114 29z"/>
<path d="M703 1200 c-38 -16 -46 -44 -32 -121 11 -61 10 -72 -3 -85 -12 -13
-20 -14 -37 -5 -26 14 -51 61 -51 96 0 26 -6 30 -28 16 -11 -6 -11 -17 -2 -51
23 -87 102 -128 151 -79 18 18 20 28 14 68 -14 80 -11 113 8 125 29 17 77 -42
77 -94 0 -33 3 -40 20 -40 26 0 27 40 1 95 -29 64 -74 92 -118 75z"/>
<path d="M2109 1154 c-14 -17 -15 -16 44 -51 33 -21 34 -29 3 -37 -47 -12 -73
-82 -49 -133 31 -65 119 -84 167 -36 28 28 42 65 31 82 -4 7 3 10 17 8 44 -4
23 22 -77 95 -128 94 -121 90 -136 72z m146 -129 c47 -46 19 -118 -45 -118
-37 0 -80 39 -80 74 0 28 44 69 75 69 14 0 37 -11 50 -25z"/>
<path d="M842 851 c-78 -84 -99 -111 -89 -120 10 -8 38 15 117 94 93 94 103
106 89 120 -13 13 -26 3 -117 -94z"/>
<path d="M1978 894 c-15 -8 -35 -28 -43 -44 -18 -36 -18 -37 0 -43 9 -4 19 4
27 21 17 35 57 57 91 48 15 -3 27 -10 27 -14 0 -4 -29 -30 -65 -57 -36 -27
-65 -52 -65 -57 0 -14 63 -48 88 -48 39 0 83 29 98 67 40 94 -64 178 -158 127z
m132 -94 c0 -38 -44 -74 -80 -65 -14 4 -27 9 -30 12 -7 7 94 92 103 86 4 -2 7
-17 7 -33z"/>
<path d="M928 782 c-75 -101 -85 -119 -73 -131 8 -8 16 -13 18 -10 2 2 41 55
87 117 71 97 81 115 69 127 -12 11 -27 -4 -101 -103z"/>
<path d="M1070 831 c0 -5 -18 -47 -40 -93 -29 -60 -36 -84 -27 -90 20 -13 21
-11 55 57 36 73 64 89 107 61 32 -21 32 -53 -1 -117 -25 -49 -26 -79 -4 -79
15 0 70 126 70 159 0 40 -42 76 -89 76 -27 0 -38 4 -37 14 1 9 -7 17 -16 19
-10 2 -18 -1 -18 -7z"/>
<path d="M1850 810 c-11 -7 -9 -19 13 -68 33 -73 33 -85 2 -110 -16 -13 -23
-26 -19 -36 9 -23 21 -20 46 14 14 20 24 26 29 19 4 -7 14 -9 23 -6 13 5 8 21
-28 97 -50 105 -47 101 -66 90z"/>
<path d="M1622 718 c2 -15 10 -23 23 -23 13 0 21 8 23 23 3 18 -1 22 -23 22
-22 0 -26 -4 -23 -22z"/>
<path d="M1416 699 c-3 -17 -6 -43 -6 -56 0 -23 -3 -25 -32 -19 -113 20 -120
20 -116 0 3 -15 16 -21 70 -28 l67 -8 -6 -47 c-3 -25 -7 -47 -8 -48 -1 -2 -36
3 -77 11 -72 12 -77 12 -81 -6 -3 -10 -2 -18 1 -18 4 0 47 -7 97 -15 49 -8 90
-13 91 -12 2 2 44 259 44 270 0 4 -8 7 -19 7 -13 0 -20 -10 -25 -31z"/>
</g>
</svg>
