<svg version="1.1" id="Layer_1" xmlns="http://www.w3.org/2000/svg" xmlns:xlink="http://www.w3.org/1999/xlink" x="0px" y="0px"
	 width="100%" viewBox="0 0 1080 1080" enable-background="new 0 0 1080 1080" xml:space="preserve">
<path fill="#47704C" opacity="1.000000" stroke="none" 
	d="
M633.000000,1081.000000 
	C423.524109,1081.000000 214.548233,1080.989624 5.572392,1081.085205 
	C1.957829,1081.086914 0.894703,1080.488281 0.895933,1076.573364 
	C1.008044,719.614563 1.009618,362.655762 0.882826,5.697020 
	C0.881347,1.531297 1.857768,0.895606 5.801957,0.896836 
	C362.594055,1.008021 719.386230,1.007722 1076.178345,0.899645 
	C1080.081543,0.898462 1081.121216,1.469526 1081.119629,5.677342 
	C1080.990112,362.469421 1080.989502,719.261597 1081.122314,1076.053711 
	C1081.124023,1080.427246 1080.036621,1081.104858 1075.947266,1081.101562 
	C928.464905,1080.980469 780.982483,1081.000000 633.000000,1081.000000 
z"/>
<path fill="#F5F5F5" opacity="1.000000" stroke="none" 
	d="
M386.972351,209.031921 
	C386.572052,204.477371 387.653931,200.436874 385.191559,196.367813 
	C383.321533,193.277573 387.240662,187.681641 390.814606,188.177597 
	C394.066772,188.628937 393.584625,185.259598 395.937469,184.853394 
	C400.623383,184.044388 404.393311,185.782013 407.179413,188.861267 
	C412.118988,194.320602 416.375549,200.391632 421.082611,206.070206 
	C423.655151,209.173737 426.599823,211.966095 429.315094,214.954773 
	C433.230804,219.264740 437.780487,223.027924 440.952271,227.976822 
	C442.966736,231.119995 448.511292,236.552002 451.971832,238.501236 
	C451.971832,224.756088 451.846619,210.745956 452.088562,196.742157 
	C452.131561,194.254471 450.453705,192.923462 449.817596,190.941681 
	C447.110168,182.506805 448.238129,173.909302 447.983154,165.370590 
	C447.953522,164.379471 447.838409,162.917252 448.879791,162.735992 
	C453.993896,161.845886 458.017242,157.512299 463.498291,158.047852 
	C465.698456,158.262817 466.632324,159.856659 467.090576,162.105957 
	C468.191956,167.511917 468.001099,172.948715 468.022949,178.390564 
	C468.042358,183.223419 468.075684,188.057068 468.013000,192.889206 
	C467.925354,199.641800 467.867584,206.285507 470.750153,212.733841 
	C472.032959,215.603455 472.174774,219.053299 472.093628,222.409073 
	C471.892273,230.736862 472.016937,239.072784 472.032776,247.405411 
	C472.039246,250.816116 472.145599,254.008041 473.848328,257.342804 
	C476.718201,262.963409 474.937958,264.728485 469.148102,269.361664 
	C466.330933,271.615997 463.959198,272.601532 460.619171,273.155090 
	C455.608887,273.985413 451.561829,272.180359 449.303528,268.425690 
	C445.303314,261.774719 440.278625,255.947708 434.819366,250.768951 
	C428.164978,244.456467 423.275208,236.839279 417.190491,230.238541 
	C413.541809,226.280426 410.196960,221.134033 404.095490,219.923279 
	C403.902649,224.143066 406.163361,228.092651 407.089661,232.330994 
	C408.671509,239.568680 407.795044,246.852295 408.000885,254.111816 
	C408.137817,258.940887 407.992554,263.777283 408.038879,268.609772 
	C408.074585,272.336304 407.726593,275.981781 409.909760,279.540375 
	C412.157501,283.204254 410.854187,287.621521 410.940460,291.713165 
	C410.954803,292.393890 410.334839,293.282684 409.748840,293.751160 
	C404.079407,298.283447 397.920746,301.375061 390.331177,300.008881 
	C389.047272,299.777771 388.436951,299.048065 387.967957,297.845245 
	C386.264893,293.477203 383.017181,289.106689 380.051636,286.744659 
	C374.836395,282.590851 371.181946,277.249329 366.495575,272.801758 
	C361.783142,268.329468 358.349426,262.539001 353.900970,257.748138 
	C351.310150,254.957916 348.952454,251.862305 346.226379,249.366394 
	C342.936432,246.354218 340.590179,242.758743 337.738739,239.498581 
	C334.588837,235.897186 331.041168,232.430023 328.361786,228.683548 
	C326.711639,226.376251 323.186066,225.945679 322.854736,222.355103 
	C322.479736,218.290634 321.270508,214.910660 327.650116,214.637604 
	C330.082520,214.533478 332.436676,212.052505 335.726715,211.730286 
	C341.068146,211.207153 344.061432,213.619293 345.835297,217.714508 
	C348.027466,222.775421 353.071228,225.022415 355.908661,229.177521 
	C357.214569,231.089859 360.109711,231.600800 360.180084,234.661362 
	C360.231628,236.903488 363.282043,236.260162 364.719116,238.449478 
	C368.493286,244.199234 373.386322,249.276001 377.112732,255.167603 
	C378.106293,256.738464 381.618622,254.890701 381.140930,258.263550 
	C384.643738,258.556610 383.611847,263.434784 386.940948,264.056458 
	C387.289337,264.121521 386.965881,266.253754 388.508118,265.727570 
	C389.416901,265.417511 390.019562,264.498871 389.963867,263.336700 
	C389.743530,258.739502 390.482391,254.285965 389.196289,249.513489 
	C385.672882,236.438538 387.168579,222.897980 386.972351,209.031921 
z"/>
<path fill="#F6F6F6" opacity="1.000000" stroke="none" 
	d="
M768.422363,765.331848 
	C769.467651,768.712402 771.810242,771.049561 773.264465,774.066406 
	C778.115540,784.129883 776.826721,794.511047 774.619324,804.413086 
	C773.367859,810.027344 769.763062,816.165649 763.633667,818.837830 
	C761.269836,819.868408 762.894104,822.058777 761.495728,822.674683 
	C758.996765,823.775024 757.678955,827.420227 754.005554,826.087402 
	C753.099670,825.758728 752.069092,826.108276 751.991394,827.558899 
	C751.909241,829.092896 750.959900,830.113831 749.403748,829.971558 
	C745.723694,829.635254 742.417603,830.656067 739.002625,831.919617 
	C735.986511,833.035400 732.671570,832.907227 729.804871,830.955444 
	C727.840088,829.617737 725.665833,830.171448 723.560364,830.019104 
	C721.249695,829.851929 718.351562,830.966553 717.845520,827.040405 
	C717.635437,825.410400 715.966125,826.119263 714.929749,826.052429 
	C711.681946,825.842896 709.265930,823.440674 708.263062,821.266663 
	C707.227539,819.021912 704.751648,816.609802 704.119446,816.479431 
	C697.763489,815.168823 701.681580,810.496094 701.219727,807.663391 
	C700.824158,805.236755 702.388245,802.386719 706.043152,802.977661 
	C709.280457,803.501099 707.229614,799.395935 710.559021,798.511597 
	C716.187500,797.016602 720.906616,792.405884 724.714844,787.847961 
	C726.607849,785.582275 729.137817,784.774231 731.181641,783.205322 
	C735.904785,779.579712 740.274292,775.641724 744.865112,771.772644 
	C739.390625,767.956665 729.889587,769.556213 723.865662,771.053467 
	C718.137451,772.477173 716.627197,777.575989 712.243591,779.854431 
	C710.450073,780.786804 708.460083,784.924438 708.345947,787.295044 
	C708.116577,792.055725 705.341370,794.216064 701.966858,795.362732 
	C697.985535,796.715454 694.626038,793.615845 691.483948,791.615173 
	C689.444702,790.316650 691.175415,777.286926 693.388306,776.099243 
	C694.410400,775.550598 694.933777,775.226013 694.978821,774.085083 
	C695.219177,768.001282 700.273071,765.578918 703.694885,761.658264 
	C707.092346,757.765381 712.117310,756.583435 715.127441,752.641968 
	C715.311462,752.400940 715.590515,752.166504 715.872498,752.075745 
	C724.902161,749.169067 734.452576,747.260376 743.479370,749.461243 
	C748.315308,750.640259 754.165955,750.766724 758.884399,754.401306 
	C755.831970,746.306458 751.464661,738.811462 751.705994,729.530823 
	C751.941528,720.477417 756.088989,713.060486 759.607483,705.566467 
	C763.191956,697.931824 772.562988,695.938293 779.079163,690.617188 
	C774.661804,688.413513 771.098450,685.764038 768.669250,681.671326 
	C768.198975,680.878967 766.278931,680.997375 765.064209,680.587280 
	C761.079102,679.242188 758.932007,675.414551 755.509399,673.175232 
	C753.970154,672.168152 753.614441,666.673950 755.908630,665.080933 
	C758.153748,663.522156 759.061462,661.352051 760.755432,659.645630 
	C764.007446,656.369751 768.412415,655.903625 771.525391,659.175110 
	C774.204102,661.990295 778.108276,663.305481 780.068115,667.168274 
	C780.876709,668.762024 783.906128,669.136719 785.888855,670.608459 
	C793.514832,676.269165 801.222839,682.000305 809.327393,686.817932 
	C813.606140,689.361267 815.042908,695.943176 821.367188,695.163269 
	C822.933655,699.457153 828.590332,699.460510 830.326233,704.005188 
	C831.093506,706.013855 834.863281,706.534668 836.936218,707.416626 
	C841.578552,709.391602 843.327759,715.534546 849.283264,715.249390 
	C850.644897,715.184204 850.334839,724.247864 848.682617,724.920471 
	C847.543335,725.384277 846.102844,725.716614 846.165344,726.905029 
	C846.443604,732.197021 842.653442,731.857239 839.326172,731.978943 
	C837.316101,732.052490 836.804993,732.603699 835.791992,734.665955 
	C832.804077,740.748596 833.711914,748.357849 829.002808,753.405029 
	C826.179626,756.430725 824.667236,760.558167 820.074951,762.602234 
	C817.998413,763.526550 813.568298,764.459167 812.839294,768.368896 
	C812.798035,768.590271 812.355347,768.917908 812.127014,768.896790 
	C806.466003,768.373962 802.126648,772.847168 796.047302,772.323975 
	C787.615723,771.598389 779.669189,770.678711 772.726318,765.425171 
	C772.047485,764.911499 770.812073,765.133301 769.448120,764.975891 
	C768.724121,764.633301 768.350708,764.361084 768.157837,763.927429 
	C767.956177,764.411255 768.443787,764.651794 768.422363,765.331848 
z"/>
<path fill="#F5F5F5" opacity="1.000000" stroke="none" 
	d="
M258.445374,543.473267 
	C261.565460,542.535706 262.073547,543.575195 263.363678,546.540344 
	C266.235199,553.140015 265.508118,559.751465 266.160828,566.413391 
	C266.656281,571.470276 263.029572,574.815918 261.833954,579.136414 
	C261.197693,581.435730 259.416260,584.411560 257.658936,586.782593 
	C262.267822,587.062378 266.559509,592.706482 269.318695,596.065918 
	C274.107361,601.896301 272.381073,608.112732 273.121979,614.284851 
	C273.760651,619.605591 272.463867,624.079041 268.085999,626.852112 
	C264.363861,629.209839 263.057007,635.310852 257.055359,634.112793 
	C255.013107,638.929993 250.753082,636.439270 247.429657,637.024902 
	C246.520844,637.184937 245.386261,636.748169 245.015823,638.124817 
	C244.459473,640.192322 242.247894,640.532532 241.028717,640.402710 
	C234.695816,639.728516 229.704712,644.591431 223.364899,644.282349 
	C221.312592,644.182251 217.682114,645.290161 218.813599,650.022400 
	C220.674805,657.806641 217.604568,661.022888 209.562897,661.028381 
	C208.562988,661.029053 207.540894,660.893188 206.567108,661.052612 
	C202.891464,661.654541 201.293594,660.330566 201.937225,656.502075 
	C202.153931,655.212952 201.971497,653.856750 201.971497,652.820251 
	C196.977768,652.237427 192.468887,654.195007 187.674500,654.099670 
	C183.696106,654.020569 181.387955,653.079712 181.886780,648.439514 
	C182.141754,646.067505 182.268814,643.628479 181.101868,641.174011 
	C178.692627,636.106567 180.283142,633.906006 186.139862,634.023254 
	C189.082565,634.082153 191.602905,634.090027 193.268906,630.971680 
	C193.898224,629.793701 194.282196,628.199219 193.765884,627.858704 
	C190.837570,625.926819 192.450089,623.081482 191.946808,620.688904 
	C191.516205,618.641907 193.364883,616.017883 190.274307,614.552734 
	C189.622543,614.243713 190.514832,613.167419 190.957870,612.463135 
	C192.941757,609.309509 200.112366,605.697754 203.317123,607.120605 
	C207.339767,608.906738 209.218155,612.455811 209.124100,617.119080 
	C209.078964,619.357483 207.875168,622.005615 210.203201,623.924072 
	C213.916779,626.984314 213.975006,627.070190 218.571487,624.741333 
	C219.695328,624.171936 220.713501,624.044678 221.854889,623.966858 
	C224.829208,623.763977 228.371262,625.248962 230.035843,621.080627 
	C230.228638,620.597839 231.558975,620.204834 232.248108,620.342041 
	C238.099991,621.506592 242.735718,617.311707 248.270752,616.811096 
	C251.881287,616.484558 254.040298,612.984802 255.728699,610.118042 
	C257.237518,607.556091 254.941971,605.178284 253.298386,603.173279 
	C247.857666,596.536072 247.608246,595.058105 251.491211,590.287231 
	C248.961700,589.824829 246.794662,589.888184 244.526917,591.682190 
	C241.867065,593.786255 238.484116,593.942078 236.144867,591.152893 
	C234.964020,589.744873 233.838684,589.990356 232.711105,590.079346 
	C225.542114,590.645752 219.642548,582.351624 218.987625,576.509155 
	C218.811859,574.941101 219.151230,573.561890 217.159683,572.437256 
	C215.112091,571.281006 214.910202,568.668091 214.937866,566.236023 
	C215.028595,558.259583 214.971954,550.281494 214.971954,542.048157 
	C212.823196,542.460388 211.196808,543.223083 209.343002,543.069458 
	C204.589401,542.675598 203.242477,546.082947 201.993683,549.765747 
	C199.825058,556.161194 202.184769,562.481384 202.143616,568.836731 
	C202.123627,571.922791 204.671341,574.441223 206.564957,576.587830 
	C208.919739,579.257324 209.778824,582.249878 208.759689,584.958374 
	C207.857758,587.355469 205.036850,589.289307 202.351318,589.879028 
	C199.647980,590.472656 196.405579,590.790527 193.960800,589.817993 
	C191.059723,588.663940 190.039719,585.022400 188.104401,582.546448 
	C183.884048,577.147095 184.837738,570.220581 182.688614,564.167358 
	C180.750076,558.707092 179.727020,551.193054 184.186996,545.188538 
	C184.638062,544.581238 185.050980,543.629150 184.914841,542.950867 
	C183.478043,535.792236 189.670761,533.141846 193.208969,529.055359 
	C199.404816,521.899353 207.771271,521.122314 216.515030,521.974915 
	C225.812180,522.881409 234.706635,520.026917 243.808548,519.161438 
	C249.258072,518.643311 254.792618,519.020508 260.288940,518.992554 
	C262.339142,518.982117 262.818817,520.855347 262.872040,522.026978 
	C263.075439,526.504578 263.089325,531.023682 262.640991,535.473511 
	C262.536957,536.506104 262.821228,538.921448 260.238190,539.135681 
	C258.220306,539.303040 259.361328,541.260071 258.835754,542.779053 
	C254.619553,543.339722 253.045532,539.963562 251.373444,537.367310 
	C249.997986,535.231689 252.711014,534.792114 254.108093,534.325989 
	C256.434357,533.549866 258.430145,532.852844 258.508301,529.784424 
	C258.595459,526.362061 257.644867,524.399963 253.781433,524.484985 
	C238.806519,524.814758 223.806335,525.145020 208.942902,526.898193 
	C198.478333,528.132507 191.088150,534.217346 188.451904,544.778625 
	C185.199249,557.809143 187.358627,570.232727 193.745926,581.951294 
	C194.762650,583.816650 195.878937,585.864990 198.671814,585.290039 
	C202.254898,584.552490 203.631241,581.984436 201.759323,578.744446 
	C198.446167,573.009888 196.514771,566.871521 195.742401,560.351440 
	C194.373581,548.796448 200.498688,539.364502 210.732864,537.124756 
	C215.904465,535.992920 217.766464,537.186096 218.879486,542.335693 
	C219.805389,546.619629 219.450424,550.965576 219.487564,555.289185 
	C219.536453,560.983398 220.115707,566.617188 221.820999,572.051208 
	C225.034302,582.290588 233.097733,588.301208 241.945923,587.263489 
	C252.438156,586.032898 259.848969,578.016724 260.404388,566.943970 
	C260.721069,560.630554 260.967163,554.266724 258.518097,548.193726 
	C257.954010,546.794922 257.663422,545.310974 258.445374,543.473267 
z"/>
<path fill="#F4F4F4" opacity="1.000000" stroke="none" 
	d="
M266.322784,380.969299 
	C271.179138,380.826752 275.940002,382.200073 279.335449,377.898987 
	C279.615234,377.544556 280.216919,377.117035 280.566833,377.193207 
	C288.222656,378.859619 294.834137,373.327362 302.277069,374.046631 
	C304.944366,374.304413 307.133911,372.220032 309.989532,373.311371 
	C312.360870,374.217682 313.953888,375.362061 312.939514,377.764832 
	C311.585205,380.972717 309.993042,384.253693 307.723877,386.812225 
	C306.875732,387.768616 306.540466,388.733276 305.888092,389.604187 
	C304.170563,391.897125 302.632965,394.619324 298.803955,394.124268 
	C296.413483,393.815216 293.535706,393.068176 291.982330,396.367920 
	C291.638306,397.098785 289.947815,397.624298 288.934204,397.542175 
	C282.154999,396.992950 276.079010,400.197754 269.581665,400.977875 
	C263.814270,401.670319 262.535400,403.798706 264.852722,408.938934 
	C265.537323,410.457520 266.096558,412.216156 266.120117,414.133911 
	C266.171875,418.339081 268.648010,420.667206 272.844025,420.938507 
	C274.535828,421.047913 275.989594,420.782349 276.268768,423.282043 
	C276.471619,425.098114 278.427917,425.139374 279.940521,424.944275 
	C282.977936,424.552490 284.869232,426.479767 285.708069,428.700012 
	C286.392181,430.510742 286.642426,432.642334 284.253998,434.734161 
	C282.137268,436.588043 281.125702,439.962952 279.481476,442.552948 
	C276.944122,446.549835 274.935608,445.051331 272.561035,443.992920 
	C266.152863,441.136566 259.539001,438.305115 253.772186,434.583496 
	C246.136169,429.655609 237.469193,427.027466 229.862640,421.996155 
	C224.962997,418.755280 218.841644,416.664398 213.471359,413.815186 
	C207.857681,410.836853 201.767624,408.908997 196.352142,405.347809 
	C193.680878,403.591217 190.744400,401.137360 186.952454,400.969330 
	C183.302673,400.807556 182.262985,396.577423 179.159592,395.398987 
	C179.070114,395.365021 179.062851,395.103699 179.024963,394.946533 
	C178.880737,394.348236 185.005585,381.262360 185.612381,381.260101 
	C189.421860,381.245880 192.951096,380.550812 196.952774,382.796356 
	C199.777725,384.381592 202.531113,387.015594 206.576767,387.283661 
	C209.496841,387.477142 211.814362,391.148926 215.064575,392.012665 
	C219.599396,393.217804 223.608719,395.970398 227.185455,398.389587 
	C230.363785,400.539337 234.256180,400.221191 236.964188,402.878998 
	C238.060898,403.955444 240.050842,404.776520 241.460587,403.579102 
	C242.622971,402.591766 242.241699,400.625031 241.857559,399.297180 
	C240.587311,394.906342 240.040070,389.978882 238.438507,386.174713 
	C236.560211,381.713135 237.816757,376.201447 235.189529,373.252441 
	C230.278458,367.739777 232.669006,361.840454 232.006485,356.118835 
	C231.756180,353.957123 232.205795,351.938324 234.474060,350.747711 
	C235.112091,350.412811 235.915192,349.455566 235.853592,348.866241 
	C235.035355,341.038330 240.950058,344.797577 244.165314,344.015625 
	C244.955811,343.823395 246.085968,344.111420 245.920349,345.189911 
	C245.062134,350.778076 250.824768,355.065674 248.990143,360.740784 
	C248.013306,363.762482 252.352798,363.740295 251.849152,365.348663 
	C249.784103,371.943481 257.766113,375.701538 256.184784,382.175873 
	C255.715836,384.095764 260.556274,384.986633 262.355042,382.877075 
	C263.416168,381.632568 264.182404,380.701538 266.322784,380.969299 
z"/>
<path fill="#F5F5F5" opacity="1.000000" stroke="none" 
	d="
M520.059204,884.236816 
	C518.145752,888.971375 519.206238,893.497864 519.095032,897.915222 
	C519.026978,900.620728 518.806702,903.135986 517.279297,905.445862 
	C515.187134,908.609863 515.957336,912.215820 516.113403,915.605042 
	C516.298157,919.617798 515.216980,921.417175 510.825928,921.099182 
	C503.067352,920.537231 494.979401,922.424072 487.944977,917.200500 
	C486.967529,916.474670 485.021667,917.046753 483.524017,917.028564 
	C478.456940,916.967102 473.322510,917.711853 468.705902,914.445190 
	C467.557129,913.632263 465.473022,914.194702 463.830872,914.015076 
	C459.473236,913.538452 454.959167,915.251770 450.873718,911.342773 
	C448.989777,909.540222 444.887939,911.461182 441.737213,910.448242 
	C438.536316,909.419128 437.578339,908.139954 438.860596,904.869324 
	C439.970795,902.037598 441.609497,899.259460 441.023041,895.926514 
	C440.671051,893.926086 442.240875,893.972656 443.613525,893.973816 
	C449.278503,893.978455 456.047272,891.988342 460.376312,894.393127 
	C469.114410,899.247070 479.104065,893.960083 487.397156,899.507507 
	C489.250153,900.746948 492.723389,900.334778 495.177368,899.671692 
	C497.302551,899.097351 499.419525,897.634094 499.067352,894.351196 
	C498.660950,890.562561 499.068970,886.693420 498.927429,882.866455 
	C498.868286,881.267395 499.303680,879.838135 500.136871,878.695862 
	C502.640656,875.263428 503.106110,874.490051 497.866364,872.549255 
	C491.320190,870.124512 484.580505,871.728882 478.750977,869.643066 
	C471.740967,867.134888 464.940857,867.292786 457.927643,866.961243 
	C454.484711,866.798523 451.172394,861.483398 452.056366,857.898193 
	C452.868256,854.605286 454.200806,851.402710 455.336914,848.276855 
	C456.440277,845.241028 461.540527,846.174500 463.149139,847.375183 
	C468.203217,851.147522 473.629913,849.617554 478.924347,849.935608 
	C482.512909,850.151184 485.717133,850.577454 489.242249,852.218811 
	C493.946716,854.409180 499.690338,852.913330 504.982635,852.800964 
	C506.213135,852.774841 505.949890,851.275818 505.958893,850.333435 
	C505.989227,847.168030 505.950562,844.001953 505.979065,840.836487 
	C506.002289,838.257324 506.205688,836.058777 508.141968,833.684265 
	C510.325256,831.006958 508.861298,827.003540 508.927032,823.590576 
	C509.073700,815.974548 508.973053,815.972656 516.479919,815.973145 
	C529.023865,815.973938 529.040344,815.973938 529.015259,828.535522 
	C529.008606,831.857422 528.947693,834.862915 526.816406,838.081787 
	C524.567810,841.477966 526.225769,846.173401 526.059143,850.294861 
	C525.874695,854.857788 526.199951,859.089050 522.779236,863.285522 
	C520.336548,866.282288 522.276733,871.316101 522.044434,875.433899 
	C521.880005,878.348206 522.708801,881.464355 520.059204,884.236816 
z"/>
<path fill="#F5F5F5" opacity="1.000000" stroke="none" 
	d="
M377.982635,840.104614 
	C378.188110,844.726807 372.667755,847.311584 373.766449,852.184753 
	C374.007690,853.254761 364.709381,852.897400 362.578491,852.188293 
	C354.777710,849.592041 355.852295,842.762085 357.553497,838.081421 
	C358.420380,835.696289 358.119385,830.584412 362.643799,829.609619 
	C363.044189,829.523376 363.696594,828.842224 363.629700,828.613647 
	C362.376251,824.329285 367.745758,822.202393 367.028992,818.079651 
	C366.907684,817.381897 367.227875,816.328125 367.732727,815.844849 
	C371.686768,812.060242 371.617249,806.212830 374.378510,802.279114 
	C376.530945,799.212830 374.885834,793.528809 380.421112,792.791870 
	C380.615662,792.765869 380.951630,792.187622 380.878479,792.001892 
	C379.044342,787.343140 384.714020,785.048523 384.282074,780.351257 
	C383.902374,776.222778 393.217041,774.026611 397.453949,776.976501 
	C397.994110,777.352539 398.428833,778.285217 398.908051,778.282166 
	C405.108551,778.242737 404.162476,782.833862 404.074890,786.687073 
	C409.218536,786.032837 414.122437,784.483459 418.265747,788.620483 
	C418.643097,788.997314 419.542297,789.007874 420.176300,788.947693 
	C429.123383,788.097656 435.224823,794.024963 440.239410,799.467896 
	C447.161682,806.981567 449.337891,816.990967 447.999390,827.405518 
	C442.755096,830.117737 447.832306,838.093140 441.459900,840.230103 
	C442.637726,844.363220 438.983185,847.046021 437.584656,850.032043 
	C436.012787,853.388184 437.202850,859.082458 431.649384,860.252686 
	C431.426025,860.299683 431.076721,860.852234 431.146088,861.023926 
	C432.916687,865.410889 427.849030,867.536987 427.704926,871.628296 
	C427.607941,874.382202 425.217468,877.602661 420.978790,877.052063 
	C417.064240,876.543518 413.302551,877.854248 409.846649,873.385071 
	C406.924194,869.605957 407.335541,865.885986 408.628540,863.422363 
	C410.721710,859.434143 412.421143,855.390320 414.168671,851.268860 
	C415.507202,848.112000 418.183929,845.557983 419.024231,841.973694 
	C420.202454,836.948303 424.514374,833.437134 425.466461,827.953491 
	C425.850037,825.744202 428.321228,823.371826 427.986145,820.305054 
	C427.473297,815.611023 424.452820,812.417480 421.443451,809.237671 
	C418.170654,805.779541 412.485901,807.093933 409.316559,803.240967 
	C408.967529,802.816711 407.592590,802.822937 406.932739,803.135132 
	C402.792389,805.094116 397.948059,806.459412 394.968903,809.579651 
	C393.595428,811.018188 389.967773,813.015381 390.977875,816.665710 
	C391.405426,818.210999 390.630249,819.162231 388.815735,819.079590 
	C388.269714,819.054749 387.192322,819.743164 387.212585,819.799927 
	C388.765442,824.150696 384.970184,827.159973 383.557007,830.227539 
	C382.094116,833.402893 382.652618,838.229065 377.982635,840.104614 
z"/>
<path fill="#F6F6F6" opacity="1.000000" stroke="none" 
	d="
M791.470947,391.514648 
	C795.787354,389.860626 797.083374,393.632050 799.189941,395.635315 
	C800.730042,397.099854 802.076782,398.452087 804.275330,397.947906 
	C808.228760,397.041321 809.386169,400.683655 811.700317,402.408966 
	C812.069763,402.684387 812.240051,403.988464 811.962891,404.254242 
	C808.490295,407.583557 809.933044,413.363098 805.909729,416.328339 
	C805.039124,416.969940 803.486450,417.849487 802.888367,417.505646 
	C799.401550,415.500732 795.597351,414.244019 792.061157,412.430481 
	C791.499207,412.142303 791.042114,411.083557 789.973083,411.025360 
	C784.047913,410.702881 781.818237,405.606110 779.237244,401.720459 
	C777.454834,399.037170 776.111206,395.967102 773.955750,393.433350 
	C773.539795,392.944427 773.210693,392.360474 772.935791,391.776031 
	C768.562805,382.480835 768.568848,372.590179 768.999817,362.643433 
	C773.337646,360.655945 771.473755,355.456268 774.555786,352.199280 
	C777.121155,349.488251 779.917847,345.961334 781.580444,342.585114 
	C783.225342,339.244659 785.962280,340.153015 787.919800,338.846100 
	C792.126770,336.037476 795.893860,331.472595 802.008118,332.947662 
	C803.048950,333.198792 803.781433,332.345459 804.654968,331.906494 
	C806.361877,331.048767 808.399658,329.835266 810.078369,330.112823 
	C817.023865,331.260986 824.174316,331.703705 830.241394,336.248566 
	C832.018738,337.580017 834.435181,338.330627 836.506348,339.595886 
	C839.858459,341.643677 842.718750,343.730316 843.049805,347.930389 
	C843.210876,349.974182 845.266724,350.792664 846.235901,351.776672 
	C851.255554,356.873688 849.124268,364.015289 852.141846,369.600861 
	C853.818787,372.704865 848.869385,387.223694 846.965088,390.209625 
	C843.942749,394.948669 841.193604,399.998291 836.360718,402.859192 
	C833.687683,404.441528 833.320190,408.272308 828.776794,408.333923 
	C823.515076,408.405304 821.552368,405.023010 819.066528,402.119629 
	C817.518982,400.312256 816.735107,397.285004 815.569336,395.532867 
	C812.999512,391.670502 811.795837,386.674347 807.581116,383.912506 
	C806.938049,383.491089 806.090881,382.677063 806.107178,382.065125 
	C806.235474,377.253632 802.126587,374.935028 800.273193,371.383179 
	C798.917236,368.784637 796.087830,367.124481 795.746094,363.834930 
	C795.620789,362.629395 793.987793,361.580536 793.029480,360.444611 
	C787.595093,365.455566 789.111755,371.840637 789.058777,377.836090 
	C789.035645,380.457214 788.224548,383.232147 791.432739,385.169312 
	C792.890320,386.049408 791.872009,388.605713 791.839478,390.825104 
	C789.051697,392.027191 788.106812,389.984406 787.194458,388.294525 
	C781.671265,378.064819 781.452881,367.965546 788.260071,358.158844 
	C791.733154,353.155273 794.359924,353.154297 797.616699,358.242737 
	C805.964172,371.284973 813.990051,384.528320 822.173279,397.673401 
	C826.698853,404.943054 827.427002,405.015289 834.023376,399.357147 
	C846.231689,388.885284 850.186646,375.344391 845.284607,360.801422 
	C840.454529,346.472321 827.392090,335.870239 812.404602,335.701508 
	C788.705566,335.434692 766.334656,357.677734 775.501709,384.197510 
	C779.686707,396.304443 787.138733,405.880524 799.461487,410.778931 
	C803.183289,412.258423 804.548950,411.225708 805.536621,407.434906 
	C806.200562,404.886993 805.016663,403.734253 802.933716,402.861359 
	C799.531067,401.435486 796.378174,399.573059 793.697205,397.014618 
	C792.243713,395.627533 790.851135,394.137939 791.470947,391.514648 
z"/>
<path fill="#F6F6F6" opacity="1.000000" stroke="none" 
	d="
M706.642090,317.313232 
	C701.483154,314.908783 696.931335,312.343872 694.932861,307.022614 
	C694.174622,305.003937 692.142639,306.677917 690.923218,305.011627 
	C684.991638,296.906281 685.980042,295.055817 691.397766,288.249298 
	C694.223511,284.699280 697.340210,281.236633 700.877563,278.430359 
	C706.478638,273.986786 709.972839,267.783325 714.241821,262.394012 
	C718.275208,257.302063 724.036743,253.770248 727.056458,248.144897 
	C730.022644,242.619186 734.978760,238.801773 738.020020,233.528442 
	C739.056152,231.731781 740.904358,232.136536 742.165466,230.628387 
	C744.898438,227.359955 746.219604,223.092438 749.866821,220.433441 
	C751.511353,219.234451 752.510559,219.042633 754.116760,219.996964 
	C759.297607,223.075104 763.071655,227.979004 768.155212,231.067886 
	C773.167542,234.113541 777.421570,238.320190 780.939148,242.466858 
	C783.439941,245.414993 786.763184,245.836151 789.150269,248.334793 
	C792.941833,252.303589 796.155334,256.547607 799.131165,261.120544 
	C800.679321,263.499603 801.839661,266.729370 803.526062,268.145996 
	C806.531067,270.670258 805.909668,273.270111 805.990356,276.060852 
	C806.062439,278.557373 807.087341,280.582794 807.948486,282.853333 
	C809.961914,288.162537 810.065613,294.086060 807.831604,299.574860 
	C807.028870,301.546814 806.177490,303.325409 805.930237,305.541473 
	C805.422607,310.090363 804.098267,314.448792 799.843933,317.101349 
	C798.937439,317.666534 798.931763,318.480804 799.061096,319.220123 
	C799.725952,323.019257 796.347351,324.689697 794.483093,326.582428 
	C789.629822,331.509827 783.711243,335.259857 777.744690,338.821045 
	C777.326355,339.070740 776.943542,339.816040 776.643311,339.763641 
	C769.452087,338.506897 764.022949,345.127045 756.824097,344.086090 
	C752.666870,343.484985 748.273254,344.029358 744.970520,340.589874 
	C744.668579,340.275391 743.997314,339.967926 743.655029,340.091919 
	C738.272522,342.041718 734.550415,336.555084 729.517761,336.976288 
	C728.153076,337.090546 727.976990,336.089233 727.963318,334.997467 
	C727.953308,334.195801 728.015442,333.140656 726.878357,333.123077 
	C722.174805,333.050385 719.094360,329.814026 716.386841,326.867401 
	C713.377502,323.592224 709.558289,321.179108 706.642090,317.313232 
z"/>
<path fill="#F6F6F6" opacity="1.000000" stroke="none" 
	d="
M585.215088,266.026031 
	C580.708557,266.511719 577.207275,263.507355 576.472961,261.073029 
	C575.313232,257.228973 574.558044,252.134857 579.063232,248.866547 
	C579.414062,248.612015 579.939575,248.094879 579.870361,247.838409 
	C578.154419,241.481567 582.742188,236.253128 582.972839,230.260712 
	C582.979248,230.094391 582.932251,229.914688 582.979614,229.762894 
	C584.995544,223.299561 587.011658,216.836273 589.059265,210.382965 
	C589.199768,209.940201 589.889526,209.495987 589.809448,209.184906 
	C588.132385,202.671722 592.503479,197.284576 593.281616,191.158218 
	C594.027344,185.286438 596.843628,179.652145 598.204651,173.674469 
	C598.881836,170.700195 600.360291,167.667206 599.859009,164.626160 
	C599.103088,160.040283 603.688904,158.651703 604.859009,155.244186 
	C605.106873,154.522339 608.958740,154.334976 609.338989,155.389191 
	C610.764404,159.341644 613.833008,157.983459 616.239075,157.872238 
	C619.387329,157.726685 620.326172,158.761719 620.084900,161.816299 
	C619.823303,165.127075 621.382385,169.584671 619.749634,171.583282 
	C615.898438,176.297394 618.818298,182.627563 614.729675,187.088257 
	C613.036621,188.935410 613.065552,192.786240 614.734924,194.459427 
	C616.219543,195.947433 619.092285,195.131027 621.380615,193.296402 
	C624.599792,190.715591 628.528687,191.551193 632.076599,193.039124 
	C634.350952,193.992950 636.416321,195.144836 639.066223,195.031296 
	C644.205261,194.811066 647.538940,197.829346 651.389771,201.025833 
	C655.421082,204.372192 658.534668,208.491318 662.511353,211.771378 
	C662.756897,211.973877 663.395569,212.058731 663.387024,212.158829 
	C662.931335,217.514481 668.782166,220.649643 668.125916,226.233612 
	C667.623901,230.505356 667.929016,234.886246 668.058533,239.213104 
	C668.151428,242.314636 667.745972,245.128143 665.256653,247.285660 
	C664.481567,247.957474 663.808777,248.764008 664.051147,249.853058 
	C665.055115,254.364594 661.595581,256.516052 659.409241,259.566467 
	C656.332825,263.858826 654.045471,268.690399 647.894409,269.128174 
	C647.654602,275.285919 640.245605,271.163574 638.411316,275.638397 
	C638.068665,276.474335 634.365479,275.987823 632.211975,276.014160 
	C628.548035,276.058929 624.879517,276.122894 621.220337,275.983521 
	C619.513550,275.918518 616.938049,277.120483 616.792969,273.720337 
	C616.783020,273.488129 616.017151,273.147919 615.575073,273.096466 
	C611.973938,272.677155 607.525330,274.721893 605.521973,269.262909 
	C605.391846,268.908295 600.866211,267.939941 598.883118,266.024048 
	C596.922546,264.129974 595.248596,261.438782 592.389893,265.611267 
	C591.608704,266.751526 587.980408,265.941193 585.215088,266.026031 
z"/>
<path fill="#F6F6F6" opacity="1.000000" stroke="none" 
	d="
M815.999695,517.501953 
	C817.009460,513.786926 817.934021,509.371704 819.428467,507.626831 
	C822.902222,503.571075 824.333130,498.380920 828.552979,494.491089 
	C832.783997,490.590790 837.763916,487.705688 842.238647,486.396393 
	C852.467834,483.403412 863.729614,483.263794 873.925171,486.407349 
	C879.225281,488.041534 885.799683,491.182556 888.816589,496.238342 
	C892.010864,501.591431 897.824524,505.896851 897.144897,513.483582 
	C896.565552,519.951050 897.433838,526.500488 897.366699,533.034912 
	C897.310852,538.463257 896.104553,543.736267 893.366882,547.237732 
	C890.964233,550.310791 888.503113,554.100708 884.447998,556.507141 
	C881.906860,558.015137 878.137268,558.840332 876.432617,561.990234 
	C876.222534,562.378540 875.630188,562.888855 875.299683,562.833801 
	C870.267029,561.995850 866.113770,565.066223 861.535767,565.838135 
	C853.931030,567.120544 849.982361,563.029541 849.977722,555.190979 
	C849.968811,540.195740 849.999817,525.200378 849.935303,510.205444 
	C849.929504,508.857727 850.796814,507.016174 849.088562,506.213623 
	C847.658020,505.541565 846.431274,506.602295 845.055420,507.308105 
	C839.573669,510.120300 835.869141,513.837463 835.935120,520.499329 
	C835.960571,523.067139 832.370422,524.121704 832.918701,527.453918 
	C834.061646,534.400818 835.999023,540.791687 841.355774,545.749390 
	C844.345276,548.516113 843.641907,554.293213 840.196106,556.074402 
	C838.607544,556.895569 838.621033,558.964844 836.242493,559.588928 
	C829.108398,561.460693 823.723938,558.530090 822.976196,551.556885 
	C822.923096,551.061096 822.981934,550.137207 822.881409,550.121948 
	C815.981018,549.078613 821.392639,541.018433 816.439697,538.722107 
	C815.832581,538.440674 816.002991,536.254883 815.993591,534.950317 
	C815.952881,529.285767 815.979065,523.620789 815.999695,517.501953 
z"/>
<path fill="#F5F5F5" opacity="1.000000" stroke="none" 
	d="
M258.387878,498.572510 
	C259.370056,502.451385 256.068756,504.247070 254.094803,505.778656 
	C247.909210,510.578064 240.673538,512.885681 232.610367,512.081909 
	C229.310989,511.752991 225.283249,513.213379 222.753983,511.788300 
	C216.911896,508.496796 208.822693,510.181976 204.660187,502.860016 
	C203.002457,499.944000 199.262207,498.161499 196.719955,495.410797 
	C194.714584,493.241028 192.615799,489.362122 192.650146,488.626740 
	C192.997589,481.188660 186.436340,474.697937 189.178360,467.456055 
	C191.002533,462.638245 192.433960,458.057404 192.050034,452.946350 
	C197.433868,452.072571 193.207001,445.781189 197.686737,443.297852 
	C200.142410,441.936554 204.153107,439.590759 205.178589,435.604736 
	C205.264404,435.271240 206.292282,435.083069 206.904938,435.006012 
	C207.725449,434.902802 208.588791,434.852692 209.397186,434.991974 
	C212.422165,435.513214 212.892166,430.683014 216.497528,431.894867 
	C219.713364,432.975800 217.446884,436.879578 220.719406,438.214783 
	C223.816391,439.478455 222.085831,449.371704 219.056839,451.116608 
	C213.058914,454.571869 207.656128,458.522888 208.990097,466.846191 
	C209.752319,471.601990 207.718094,476.626831 210.976624,481.208954 
	C213.618561,484.924072 216.544724,487.303101 220.838928,489.481873 
	C225.744904,491.971100 230.251282,491.426666 234.997696,492.012756 
	C241.850861,492.858978 244.968399,487.891602 249.042465,483.897461 
	C252.573578,480.435699 252.324661,475.382477 255.357834,471.705627 
	C256.535675,470.277832 257.922150,466.412903 253.881729,464.945160 
	C253.733414,464.891235 253.493073,464.796631 253.482346,464.700195 
	C252.922958,459.672760 247.727844,456.359283 248.744659,450.481628 
	C249.181534,447.956238 251.343613,448.442169 251.886490,446.941528 
	C252.845734,444.289948 256.126648,444.074158 257.374512,441.437561 
	C257.863098,440.405243 260.978851,440.202972 262.259460,441.868866 
	C264.887329,445.287506 269.610016,447.557251 268.986176,452.873138 
	C268.708832,455.236084 271.076263,455.075867 271.832977,456.463562 
	C274.466278,461.292542 272.462036,477.195679 269.839081,482.296082 
	C268.199310,485.484680 268.607147,489.998627 265.920685,492.810974 
	C263.892914,494.933746 263.758118,499.210846 259.088196,498.879761 
	C257.662415,496.084625 259.644531,494.411926 260.825043,492.486176 
	C267.172729,482.131653 270.058624,471.174622 266.773407,459.098938 
	C266.022034,456.337036 265.047302,453.647156 263.314697,451.391846 
	C261.951721,449.617706 261.165100,446.347687 257.674744,448.191406 
	C254.148758,450.053925 253.320770,452.814117 255.173492,456.393066 
	C261.432190,468.483246 259.516327,482.011139 249.812668,490.548767 
	C240.490585,498.750702 229.761108,498.911652 218.931656,494.131897 
	C208.922943,489.714325 203.544205,481.992218 203.493286,470.633911 
	C203.450592,461.107758 206.531967,453.345184 214.361786,447.738647 
	C216.772049,446.012817 217.312881,444.033112 216.354263,441.257721 
	C215.214630,437.958313 213.562897,437.134644 210.386444,438.939514 
	C200.470825,444.573578 196.223358,453.877747 194.729431,464.389618 
	C192.425476,480.601318 197.022202,494.473602 212.055267,502.704254 
	C225.453568,510.039917 239.182083,509.830872 252.298431,501.223236 
	C254.089478,500.047821 255.676743,498.448334 258.387878,498.572510 
z"/>
<path fill="#F6F6F6" opacity="1.000000" stroke="none" 
	d="
M242.560852,722.242310 
	C243.085693,714.882202 243.676041,707.321045 241.536148,700.994202 
	C239.270935,694.296692 241.046799,686.713623 236.407120,680.733459 
	C234.756760,678.606262 236.175797,666.042908 238.208923,663.962219 
	C239.233978,662.913208 238.858276,661.847839 238.961105,660.772156 
	C239.409012,656.086853 242.057175,653.545593 245.765381,650.540710 
	C249.141968,647.804565 253.167114,646.565918 256.586121,644.749634 
	C260.834656,642.492615 267.142242,642.780212 272.047852,644.763916 
	C277.404602,646.930115 282.535797,649.701538 287.098358,653.718445 
	C291.023193,657.173889 292.714050,661.883362 296.025543,665.531311 
	C299.276367,669.112366 299.199005,674.360718 302.414154,677.929382 
	C302.525452,678.052979 302.741180,678.152649 302.757019,678.282043 
	C304.020477,688.608337 307.810181,698.703125 305.925110,709.303467 
	C305.469727,711.864197 302.171051,712.085083 300.533813,713.907715 
	C299.733856,714.798157 297.830383,714.883179 296.400482,714.991882 
	C287.078308,715.700317 284.120087,712.647766 287.099854,703.163208 
	C287.948456,700.462036 288.089691,698.148682 287.023254,695.587952 
	C286.470825,694.261414 285.990509,692.761230 286.032410,691.356079 
	C286.201569,685.680786 283.011383,681.671509 280.334229,677.043152 
	C277.677612,672.450439 274.872986,668.846313 270.532837,665.777039 
	C267.455963,663.601135 263.818634,663.058350 261.878510,664.512024 
	C259.375214,666.387573 255.155045,668.054260 255.943848,672.914307 
	C256.391754,675.674133 256.002838,678.566345 256.034363,681.398438 
	C256.051910,682.976013 255.696655,684.526428 257.790375,685.491943 
	C259.860931,686.446838 258.680237,688.773743 259.051636,690.472534 
	C259.667145,693.287842 257.131378,696.930176 261.728882,698.869690 
	C262.810059,699.325806 262.913757,702.771851 262.970001,704.855774 
	C263.127228,710.683044 263.151306,716.520935 262.986450,722.347778 
	C262.835510,727.682556 257.424530,734.236877 252.204132,734.703735 
	C251.250458,732.912109 251.933914,731.728943 252.839645,730.751526 
	C258.890747,724.222168 259.114655,716.392700 258.016266,708.226257 
	C257.124908,701.598999 255.179550,695.214417 253.647034,688.734009 
	C252.496979,683.870972 251.375824,679.015015 251.511276,673.945923 
	C251.659897,668.384033 253.439560,663.742126 258.664856,661.174500 
	C264.023804,658.541138 269.378723,658.927551 274.305939,662.318787 
	C278.331818,665.089722 281.535614,668.722534 283.976135,672.965576 
	C289.659363,682.846313 292.773712,693.417480 292.325592,704.904785 
	C292.246460,706.934326 291.834473,709.089478 294.836700,709.332397 
	C297.506287,709.548462 299.927856,709.151184 300.922516,706.212036 
	C301.793945,703.636902 301.713593,700.911743 301.435120,698.280762 
	C299.656006,681.469666 293.737366,666.548889 280.558746,655.354553 
	C274.049683,649.825562 266.548218,647.207825 257.822845,649.858215 
	C245.492157,653.603638 239.268311,663.478394 241.034409,676.264709 
	C242.588272,687.514404 246.447998,698.276184 247.862488,709.526123 
	C248.487640,714.498230 248.671402,719.626526 242.560852,722.242310 
z"/>
<path fill="#F4F4F4" opacity="1.000000" stroke="none" 
	d="
M509.578186,192.323929 
	C507.603455,188.437836 511.138092,186.751801 512.568726,186.318954 
	C516.422852,185.152863 519.555847,182.096802 523.692322,182.003036 
	C529.519409,181.870972 535.477783,182.715439 541.145935,181.757599 
	C546.656738,180.826324 550.737793,184.134537 555.071411,185.611313 
	C558.746338,186.863617 562.083984,191.338196 565.416565,194.549240 
	C572.952148,201.810059 573.366760,211.257019 574.918762,220.364380 
	C575.859314,225.883591 572.455017,229.299240 566.797546,228.955460 
	C560.956909,228.600525 555.293457,230.214523 549.511414,230.008438 
	C542.900330,229.772781 536.297974,229.290878 529.686707,229.063339 
	C525.741638,228.927567 521.944092,229.985397 518.146362,230.952744 
	C514.369507,231.914780 515.743103,234.169571 517.121826,235.861389 
	C520.248230,239.697754 524.845642,241.799530 528.574219,244.959167 
	C531.154480,247.145737 534.331848,245.569656 537.212891,245.955841 
	C543.740845,246.830948 549.057190,244.915695 553.225891,239.532715 
	C555.099976,237.112747 563.652283,239.174805 566.424622,241.379700 
	C568.848633,243.307526 570.442139,244.994171 570.061157,248.195419 
	C569.837280,250.075928 570.632935,252.206757 567.293884,252.192459 
	C565.144592,252.183243 565.290894,255.170227 563.510498,256.563660 
	C560.774231,258.705231 556.669128,257.888275 554.706543,261.463501 
	C554.028687,262.698303 551.017395,263.099304 548.783203,263.070923 
	C540.622375,262.967316 532.459473,263.034454 524.297302,263.026794 
	C521.980286,263.024628 519.616272,263.022980 518.931396,260.089111 
	C518.730591,259.229034 518.156006,259.132019 517.495483,259.064972 
	C509.921570,258.295868 506.317780,252.538589 501.703461,247.514160 
	C499.077698,244.655014 499.583313,240.316116 495.941467,238.370895 
	C494.345184,237.518250 494.999298,235.669205 494.991089,234.240036 
	C494.946106,226.411285 494.968445,218.582123 494.970703,210.753113 
	C494.971405,208.300720 494.819550,205.882568 497.932159,204.853439 
	C499.890533,204.205963 498.652679,202.275482 498.960388,200.951904 
	C499.733124,197.628220 501.364227,195.225006 505.761139,195.262665 
	C506.872894,198.569336 504.655029,200.473297 503.365845,202.718628 
	C493.577271,219.767242 498.140320,242.252045 513.587158,252.781754 
	C526.767578,261.766449 549.162415,261.519531 560.800781,252.181412 
	C562.796326,250.580261 565.463806,249.078262 563.033997,245.715561 
	C560.655212,242.423386 558.407654,243.172577 555.431091,245.042114 
	C542.781921,252.986877 528.263306,252.328995 517.700684,243.552811 
	C514.304260,240.730743 511.663879,237.325027 510.393311,233.029495 
	C508.868622,227.874756 510.315643,225.730209 515.641235,225.581696 
	C522.803894,225.381958 529.982910,225.289261 537.136719,225.577805 
	C546.828369,225.968704 556.412903,224.266663 566.081055,224.484482 
	C568.817078,224.546127 570.403687,223.685272 570.236572,220.408585 
	C569.268311,201.421173 556.688965,187.758911 537.810791,185.723114 
	C529.798523,184.859085 522.261353,186.852570 515.240540,190.767929 
	C513.656189,191.651505 512.254822,192.961380 509.578186,192.323929 
z"/>
<path fill="#F5F5F5" opacity="1.000000" stroke="none" 
	d="
M833.500610,425.404358 
	C833.242981,423.511047 832.541748,422.226990 835.008484,420.570312 
	C838.062134,418.519501 840.464233,414.675964 843.295837,412.267029 
	C846.706421,409.365448 849.947937,405.908936 854.264587,403.867523 
	C857.931824,402.133209 861.077942,399.323456 862.978760,395.504883 
	C863.914001,393.626038 868.397949,393.147461 869.953857,394.985291 
	C871.725525,397.078064 873.663574,399.058197 873.113892,402.372192 
	C872.683960,404.964417 872.972473,407.686401 873.040588,410.348206 
	C873.142517,414.329376 870.138428,416.006378 867.549622,418.065369 
	C864.051819,420.847351 860.796082,423.959076 857.154175,426.529297 
	C849.045959,432.251556 843.632996,441.246552 834.052124,445.248169 
	C832.376221,445.948120 831.657227,448.696808 832.159119,450.821106 
	C832.657654,452.931274 834.647766,451.877350 835.931946,451.919891 
	C840.255432,452.063080 844.586670,451.962646 848.914856,451.975403 
	C852.510742,451.986023 856.160400,451.461121 859.172791,454.424469 
	C859.907837,455.147583 861.677246,454.941772 862.972717,454.951599 
	C869.131775,454.998383 875.291626,455.002075 881.450806,454.961945 
	C886.024963,454.932129 888.501648,456.811584 890.331604,461.378357 
	C891.733582,464.877075 894.845215,467.513641 894.151001,472.000061 
	C893.795837,474.295532 893.334167,475.302155 890.955750,475.039795 
	C885.208557,474.405884 879.052673,476.780914 873.769226,472.468445 
	C872.924194,471.778687 871.204041,471.976379 869.906128,472.055176 
	C858.181519,472.766815 846.591675,471.681335 835.237183,468.857025 
	C831.740662,467.987335 828.270813,467.659973 824.951782,468.159424 
	C818.573730,469.119293 813.147095,466.006592 807.261597,464.957092 
	C806.841858,464.882233 806.124084,464.446960 806.143860,464.235291 
	C806.674194,458.565460 800.964722,454.170013 802.907410,448.169373 
	C803.267456,447.057129 803.188965,445.670441 804.395874,445.266876 
	C811.111694,443.021240 814.579773,437.127502 819.342407,432.604584 
	C822.934814,429.192932 826.618591,425.045044 832.810547,425.090881 
	C834.054077,427.495453 832.145508,428.475342 830.912048,429.680603 
	C824.601318,435.847290 817.761414,441.438324 810.998901,447.072632 
	C806.762512,450.602203 808.526123,454.006897 809.447083,457.822998 
	C810.321045,461.444305 812.855713,462.235809 816.118225,462.566101 
	C838.282288,464.809937 860.389954,467.580170 882.561646,469.750916 
	C884.448669,469.935699 886.978821,471.853027 888.222534,468.940247 
	C889.203369,466.642822 885.702515,461.235809 882.965088,460.812805 
	C879.193359,460.230011 875.378052,459.868958 871.576782,459.452423 
	C856.535706,457.804230 841.504272,456.070038 826.471191,454.351257 
	C824.982849,454.181091 823.148438,454.130951 822.687866,452.473206 
	C821.993225,449.973328 823.981689,448.499756 825.598755,447.114288 
	C835.072998,438.997131 844.610840,430.954224 854.098450,422.852692 
	C858.272644,419.288330 862.545166,415.832886 866.537476,412.061615 
	C869.417786,409.340698 869.728943,404.294189 867.355469,401.228577 
	C865.788696,399.204956 864.680725,400.944275 863.680054,401.764038 
	C856.859985,407.350739 850.228394,413.160431 843.558655,418.925415 
	C840.589172,421.492035 838.056152,424.774536 833.500610,425.404358 
z"/>
<path fill="#F7F7F7" opacity="1.000000" stroke="none" 
	d="
M304.018768,769.037659 
	C308.438721,765.498596 311.677460,761.306335 316.267029,758.219543 
	C318.452209,756.749878 320.511993,753.410889 322.853210,751.050293 
	C327.734375,746.128479 332.269073,740.864685 337.097076,735.887878 
	C339.432526,733.480469 347.677979,735.124023 349.749603,738.772217 
	C350.707214,740.458557 351.832428,741.163269 353.079010,742.291199 
	C355.045593,744.070679 354.763397,747.127258 352.368591,749.127686 
	C344.095612,756.038391 337.668915,764.692688 330.283661,772.440308 
	C323.924835,779.111084 317.642853,785.829590 311.029297,792.269409 
	C307.265076,795.934753 302.989288,799.433350 300.242340,803.965393 
	C298.743652,806.437988 295.638702,806.404175 294.561340,809.005981 
	C292.200073,814.708374 284.699402,815.844666 282.851532,822.108459 
	C282.475464,823.383240 273.115021,823.290344 273.286835,822.363831 
	C274.049438,818.252075 269.668915,818.873840 268.211670,816.589294 
	C265.389587,812.164917 265.803894,810.070312 269.108704,805.640198 
	C273.444153,799.828552 278.934509,795.081482 283.718384,789.876953 
	C288.212097,784.987976 292.370148,779.041016 298.773804,775.594299 
	C300.457336,774.688171 302.665833,771.783020 304.018768,769.037659 
z"/>
<path fill="#F6F6F6" opacity="1.000000" stroke="none" 
	d="
M328.117798,803.021240 
	C330.829285,800.022827 333.160339,797.235840 336.162537,794.804688 
	C337.835388,793.449951 337.400116,789.525879 339.939575,787.666382 
	C345.145081,783.854492 347.680267,778.209534 350.226898,772.555786 
	C350.886688,771.091125 352.787811,772.073914 354.214081,770.612976 
	C357.050201,767.707825 357.207123,763.652405 359.864258,760.809692 
	C361.734833,758.808533 364.449402,757.764099 365.827057,755.143738 
	C366.127869,754.571594 368.351959,754.620117 369.377472,755.877319 
	C371.796783,758.843384 375.299957,760.204468 378.414246,762.186096 
	C381.502258,764.151001 380.929016,768.639893 379.549164,770.239868 
	C376.230194,774.088318 373.979919,779.210693 369.752838,781.781616 
	C366.525330,783.744629 367.576080,787.193970 365.033997,789.429810 
	C363.063416,791.162964 360.390503,792.822876 358.754120,795.735962 
	C357.353729,798.229004 357.967957,802.501221 354.048584,803.517883 
	C355.173492,807.322510 351.105072,805.987488 349.760223,807.339844 
	C346.850647,810.265686 347.529663,814.664368 344.222809,817.366577 
	C342.460480,818.806763 340.491364,821.050964 338.897858,822.542053 
	C336.420349,824.860229 336.348267,828.208984 333.322449,830.433472 
	C327.958252,834.377014 326.206940,841.858459 320.801483,846.465759 
	C319.626831,847.466919 318.143066,849.778564 316.998169,851.619751 
	C315.274475,854.391663 311.326141,853.509888 310.706573,852.548828 
	C308.527374,849.168823 304.658478,848.452881 301.836609,846.409485 
	C298.906281,844.287476 299.631470,841.400208 300.320312,840.834167 
	C304.102081,837.727356 306.050781,833.169922 308.963806,829.533020 
	C311.828400,825.956360 316.159058,822.724426 317.013031,817.539490 
	C317.350952,815.487671 319.640137,814.977417 320.801605,813.358093 
	C323.211395,809.998291 326.521637,807.289185 328.117798,803.021240 
z"/>
<path fill="#F6F6F6" opacity="1.000000" stroke="none" 
	d="
M676.026245,830.037415 
	C675.142944,829.486023 674.392578,829.089050 674.263550,828.544800 
	C673.118591,823.713501 671.813110,819.008423 668.231262,815.247070 
	C667.707397,814.696899 668.022522,813.333862 667.976746,812.345642 
	C667.903442,810.764526 668.475891,808.784485 665.707947,808.991333 
	C665.274841,809.023682 664.420776,808.697327 664.427429,808.572754 
	C664.617615,805.039307 662.326843,802.484802 661.146423,799.486755 
	C660.362061,797.494446 660.938660,795.133301 658.939392,793.268738 
	C657.595886,792.015625 662.276672,786.278259 664.952515,786.014404 
	C666.859009,785.826477 668.348755,785.609436 670.085876,784.172852 
	C672.664062,782.040833 675.669983,781.905029 677.616394,785.998901 
	C682.340332,795.934875 686.979431,805.899292 691.468018,815.939941 
	C692.865967,819.066956 694.285889,822.978943 697.112244,825.646301 
	C697.454956,825.969788 697.848694,826.419678 697.896973,826.847351 
	C698.521240,832.378235 701.766785,836.624451 704.113403,841.379761 
	C705.622925,844.439026 708.847534,847.633667 708.175415,852.180542 
	C707.492065,856.802673 705.624817,859.532410 700.790283,859.999634 
	C699.462585,860.127991 698.614502,860.351746 697.611084,861.580017 
	C695.905884,863.667053 693.689331,864.236084 691.622375,861.397705 
	C690.493896,859.848083 689.863708,859.675049 687.723206,861.618774 
	C683.987976,865.010315 681.328491,869.463989 677.128906,872.257629 
	C674.487427,874.014709 671.306458,872.704956 668.387207,873.021667 
	C664.217285,873.473938 665.166687,869.670227 663.690674,867.882080 
	C661.449341,865.167114 660.696777,862.716003 660.984070,859.551453 
	C661.079590,858.499573 660.556824,857.124756 662.439270,856.982239 
	C667.549744,856.595154 669.976318,852.045593 673.535889,849.385010 
	C679.335754,845.050110 678.292297,838.297974 677.853210,832.046875 
	C677.806152,831.376160 676.935852,830.763184 676.026245,830.037415 
z"/>
<path fill="#F6F6F6" opacity="1.000000" stroke="none" 
	d="
M862.628540,614.645142 
	C866.496887,612.598694 867.617432,616.421021 869.873474,617.763550 
	C872.504456,619.329346 872.248352,623.964966 876.367065,624.120728 
	C875.960388,628.146179 880.111938,630.525024 880.048706,634.473389 
	C879.958191,640.131958 879.257629,645.930115 880.235901,651.415710 
	C881.275085,657.242737 878.677673,662.440613 876.320129,666.168945 
	C873.359253,670.851624 871.305054,676.516541 866.877136,680.254517 
	C864.976868,681.858704 862.212402,681.343445 859.955688,683.250549 
	C855.068665,687.380554 849.067993,688.904663 842.445679,688.121216 
	C838.177185,687.616272 833.797363,687.931519 829.473511,688.068909 
	C827.558105,688.129761 825.292908,687.966370 824.463379,686.630188 
	C822.841248,684.017151 820.657898,683.555115 818.226196,684.096008 
	C815.331787,684.739868 815.965393,681.716553 814.291321,680.778442 
	C807.224304,676.818420 803.900635,669.272095 799.168396,663.083862 
	C798.593079,662.331482 799.002441,660.817261 798.975952,659.655701 
	C798.897644,656.226868 797.829712,652.777588 797.632019,649.603699 
	C797.268127,643.761414 797.273987,636.521057 799.763672,632.091064 
	C802.524475,627.178772 804.570862,621.270874 809.126282,617.065063 
	C812.104004,614.315918 815.377319,612.132690 818.678894,610.014099 
	C825.769409,605.464417 833.886414,603.150085 842.108459,604.211975 
	C849.039917,605.107117 855.732971,607.990662 862.454285,610.226379 
	C863.515259,610.579285 862.931274,612.349060 862.900940,613.906128 
	C859.906311,615.826111 857.693787,613.801697 855.358521,612.763550 
	C841.551880,606.625549 828.298340,607.287109 816.385437,616.885559 
	C802.791138,627.838684 796.351440,650.534912 807.502563,667.390259 
	C817.316711,682.224670 839.510071,690.226135 857.367310,679.719666 
	C875.143372,669.260864 885.390503,638.926636 865.576965,619.340332 
	C864.300232,618.078247 862.591003,617.110535 862.628540,614.645142 
z"/>
<path fill="#F4F4F4" opacity="1.000000" stroke="none" 
	d="
M869.415710,597.050964 
	C865.302856,597.033569 861.629883,596.887085 857.975647,597.086487 
	C855.909424,597.199280 853.585693,597.035339 852.333984,595.897339 
	C847.788757,591.765137 842.424744,593.219604 837.304260,593.060120 
	C832.714600,592.917114 828.051697,593.589661 823.948425,590.589966 
	C823.134399,589.994873 821.736572,590.208740 820.611694,590.026428 
	C818.108948,589.620728 814.093689,591.374084 813.375549,588.957703 
	C812.316223,585.393066 812.066833,581.090393 814.246826,577.398804 
	C814.899292,576.294067 815.848877,575.504639 816.042847,573.990784 
	C816.554871,569.992798 821.012207,568.142883 824.194336,570.901001 
	C826.368774,572.785706 828.491638,572.853027 830.981384,573.018494 
	C837.084412,573.424133 843.308899,571.659485 849.225098,575.660034 
	C851.519958,577.211792 855.717651,575.975952 859.048279,575.963501 
	C864.002136,575.945068 868.861389,576.243958 873.025574,579.424866 
	C874.347107,580.434265 875.917847,579.823242 877.371765,579.964478 
	C883.045105,580.515869 888.681763,579.117493 894.370178,582.571167 
	C897.542908,584.497498 902.827332,583.060303 907.154236,582.935425 
	C910.730530,582.832153 914.120117,583.000000 916.610107,586.037109 
	C917.194885,586.750305 917.954651,587.109924 918.796326,586.939209 
	C923.972778,585.889099 924.187134,588.843140 924.103088,592.836060 
	C923.888794,603.016541 924.035889,603.020508 913.631348,603.029236 
	C909.966187,603.032349 906.299744,603.089844 902.636414,603.007935 
	C900.441223,602.958862 897.924927,603.806091 896.745972,600.676086 
	C896.301270,599.495483 894.658020,600.069702 893.555542,600.051880 
	C890.057922,599.995300 886.542236,599.815186 883.064331,600.082764 
	C878.297974,600.449463 873.923523,599.563354 869.415710,597.050964 
z"/>
<path fill="#F6F6F6" opacity="1.000000" stroke="none" 
	d="
M251.884491,734.882935 
	C250.323074,738.270325 249.359863,742.185547 244.408691,742.059753 
	C238.585983,741.911743 232.755280,742.097351 226.930847,741.988464 
	C224.771835,741.948181 221.595047,743.295166 221.808289,738.916016 
	C221.855209,737.952026 220.585571,738.068176 219.777832,738.033691 
	C214.202713,737.796143 212.408813,732.639160 208.775314,729.928589 
	C205.662018,727.606018 205.582214,723.913147 202.791275,721.480835 
	C201.003220,719.922546 199.303619,716.178345 198.770996,713.785706 
	C197.679810,708.883789 193.856155,704.861267 194.805740,699.207886 
	C195.621613,694.350769 195.119400,689.242188 194.917236,684.256287 
	C194.808365,681.571228 195.733093,680.780457 198.320190,680.926636 
	C201.804932,681.123657 205.312744,681.070679 208.803802,680.940918 
	C210.996597,680.859497 212.615814,681.324036 211.987350,683.868164 
	C210.088272,691.555847 213.951797,698.527771 215.628342,705.468140 
	C216.586975,709.436523 220.149490,714.105957 223.017151,718.199280 
	C225.753723,722.105347 230.043488,720.890198 232.640137,723.660339 
	C233.083237,724.133118 235.105347,724.057800 235.344742,723.636719 
	C236.780975,721.110779 239.094131,722.245605 241.474121,721.927979 
	C242.048569,722.041809 242.203232,722.190002 242.590210,722.560181 
	C240.440857,726.901428 236.829117,728.684021 232.083633,727.918762 
	C226.758301,727.060120 222.443649,724.398987 219.122330,720.177307 
	C212.137253,711.298645 208.136078,701.240723 207.610458,689.926331 
	C207.476120,687.035156 207.079681,685.211121 203.482788,685.331482 
	C199.971970,685.449036 198.189728,686.556702 198.442337,690.300110 
	C199.566696,706.961853 205.676483,721.412964 218.467102,732.304321 
	C226.725616,739.336548 236.389542,740.594543 246.449890,735.674377 
	C247.790527,735.018738 249.132706,734.329163 251.054810,734.353149 
	C251.430206,734.424683 251.733063,734.730225 251.884491,734.882935 
z"/>
<path fill="#F9F9F9" opacity="1.000000" stroke="none" 
	d="
M601.038208,833.088989 
	C599.969299,834.791626 599.607544,836.322998 597.030518,836.108582 
	C592.478699,835.729919 587.819824,836.690796 583.921631,833.014099 
	C581.913574,831.120239 579.405884,822.410767 580.889221,819.561035 
	C582.578857,816.314941 582.965698,811.396423 588.734131,812.930176 
	C593.166260,805.789124 597.847107,811.990601 601.730713,813.400024 
	C604.089233,814.256104 606.622375,818.117065 606.834167,821.464600 
	C607.009094,824.229309 609.021729,828.379150 603.602478,829.315002 
	C602.132141,829.568909 604.153870,832.860962 601.038208,833.088989 
z"/>
<path fill="#F5F5F5" opacity="1.000000" stroke="none" 
	d="
M331.219055,353.990967 
	C326.804047,352.322571 323.813538,349.181274 320.490570,346.632324 
	C317.692810,344.486206 320.784760,330.694366 324.197357,330.303925 
	C327.024994,329.980347 326.750092,326.860291 329.751068,326.789490 
	C339.805328,326.552277 347.541382,337.704803 343.396851,347.152863 
	C343.134857,347.750183 342.864563,348.826324 342.548859,348.844971 
	C338.191803,349.102173 336.387512,354.694916 331.219055,353.990967 
z"/>
<path fill="#F4F4F4" opacity="1.000000" stroke="none" 
	d="
M506.103271,195.103638 
	C505.969696,193.420181 505.643280,191.635513 508.532135,191.940430 
	C509.043152,192.039215 509.169189,192.161804 509.484497,192.468079 
	C509.649139,194.252411 508.769135,195.171860 506.962372,195.622177 
	C506.619720,195.618179 506.275513,195.275070 506.103271,195.103638 
z"/>
<path fill="#050505" opacity="1.000000" stroke="none" 
	d="
M412.363953,220.629425 
	C409.039886,216.878006 405.950470,213.391800 402.514954,209.515015 
	C401.430176,213.278351 402.211029,216.659653 402.431549,219.991409 
	C403.926636,242.582794 405.404144,265.176056 407.097961,287.752899 
	C407.371552,291.399353 406.172760,292.927216 402.842316,294.204315 
	C393.181641,297.908875 393.280823,298.049042 386.493134,290.292297 
	C366.976929,267.989838 347.429535,245.714630 327.898956,223.424698 
	C326.814209,222.186707 325.770966,220.912369 324.421753,219.315750 
	C328.369171,217.636414 332.068481,216.251450 335.588440,214.504990 
	C338.368073,213.125839 339.135681,215.374939 340.334808,216.743179 
	C356.026184,234.647614 371.677216,252.587387 387.345673,270.511932 
	C389.183014,272.613800 391.063660,274.677826 393.696533,277.623413 
	C392.929993,264.995880 392.264557,253.520920 391.529602,242.050415 
	C390.528931,226.433304 389.516510,210.816635 388.393585,195.208099 
	C388.248352,193.188889 388.908722,192.272034 390.641846,191.407578 
	C399.842468,186.818390 399.810272,186.781219 406.524536,194.409866 
	C422.255402,212.283081 437.995300,230.148315 453.735840,248.013016 
	C454.564880,248.953918 455.433441,249.860001 457.024658,251.586243 
	C456.163635,239.287003 455.402618,228.083374 454.589691,216.883499 
	C453.444794,201.110123 452.445618,185.322342 450.974701,169.578949 
	C450.569092,165.237717 453.551758,165.157944 455.899963,164.149475 
	C463.540405,160.868179 463.402252,160.942719 463.997070,169.181641 
	C466.142822,198.903290 468.244812,228.630280 470.778198,258.319855 
	C471.251312,263.864532 470.135101,266.587158 464.617584,268.371033 
	C457.158600,270.782562 457.305878,271.257385 452.064911,265.345337 
	C440.135956,251.889175 428.213501,238.427231 416.284515,224.971100 
	C415.069366,223.600342 413.827881,222.252899 412.363953,220.629425 
z"/>
<path fill="#040404" opacity="1.000000" stroke="none" 
	d="
M832.378723,724.930420 
	C830.889587,726.115845 831.926514,727.426453 832.023438,728.649902 
	C833.505432,747.357361 820.361938,764.475403 801.431824,768.383850 
	C784.072021,771.968018 763.057983,759.368286 757.162476,741.840698 
	C751.429382,724.795898 759.918274,704.470398 776.037048,696.546753 
	C779.482910,694.852783 783.140503,693.965393 788.365784,693.502197 
	C784.700256,690.737671 782.055786,688.699280 779.365723,686.723083 
	C772.931885,681.996704 766.550964,677.192017 759.988831,672.649963 
	C757.756165,671.104736 757.343140,670.106445 758.995056,667.725891 
	C764.816895,659.336243 764.730591,659.246033 772.947876,665.226013 
	C796.889465,682.649170 820.784973,700.135925 844.797729,717.460388 
	C847.541565,719.440063 848.042297,720.684814 845.840027,723.522888 
	C840.466675,730.447693 840.619873,730.566528 832.378723,724.930420 
z"/>
<path fill="#050505" opacity="1.000000" stroke="none" 
	d="
M748.249756,754.507568 
	C764.994385,761.905579 774.925415,778.759277 772.967590,796.063354 
	C771.196167,811.720825 757.217224,825.562988 740.119751,828.589966 
	C727.380432,830.845337 709.950012,822.302063 703.803955,811.089661 
	C702.216858,808.194397 704.732300,807.942749 705.839661,807.073303 
	C719.459656,796.380005 733.162720,785.792358 746.851318,775.186523 
	C751.586365,771.517822 751.595215,771.529236 746.510315,768.278015 
	C731.970215,758.981323 709.068298,769.218384 705.245056,787.207642 
	C703.629944,794.807312 699.394287,789.870728 696.273071,789.988342 
	C692.025391,790.148438 693.334717,787.290161 693.707153,784.810059 
	C696.483459,766.323853 723.166199,744.626648 748.249756,754.507568 
z"/>
<path fill="#47704C" opacity="1.000000" stroke="none" 
	d="
M768.498474,765.471375 
	C767.178040,764.383911 765.411316,763.644897 765.026550,761.309387 
	C766.531738,762.395203 769.244324,761.036621 769.023193,764.568726 
	C768.940430,765.061096 768.819519,765.184143 768.498474,765.471375 
z"/>
<path fill="#060606" opacity="1.000000" stroke="none" 
	d="
M258.750610,543.084351 
	C261.439545,551.312988 263.249908,559.552368 262.056732,568.327881 
	C260.050629,583.082275 247.864197,591.919861 234.424179,588.026794 
	C227.662766,586.068237 223.406845,581.441040 221.017014,575.000732 
	C218.909180,569.320374 218.299576,563.359680 218.044922,557.351624 
	C217.840408,552.525757 217.370636,547.694336 217.486176,542.876648 
	C217.589371,538.573181 216.076584,537.576233 211.934555,538.386658 
	C201.828659,540.363953 196.484573,547.429688 197.214172,558.766602 
	C197.713974,566.532410 199.715240,573.897461 204.505966,580.161255 
	C206.197083,582.372375 205.826920,583.157166 203.638550,584.535095 
	C195.876266,589.422791 195.681168,589.560120 191.480804,581.387085 
	C185.911438,570.550354 184.089233,558.975403 186.132202,546.981262 
	C188.267136,534.447021 197.123825,526.089783 209.915558,525.119202 
	C225.686020,523.922729 241.511475,523.458618 257.309052,522.602051 
	C259.168152,522.501282 260.172211,522.891846 259.989044,524.917847 
	C259.974091,525.082947 259.980438,525.251770 259.994904,525.417358 
	C260.793579,534.571472 260.793793,534.571472 251.418152,536.399780 
	C254.228058,538.409729 256.268524,540.758301 258.367828,543.260376 
	C258.692871,543.181763 258.842133,543.027771 258.750610,543.084351 
z"/>
<path fill="#050505" opacity="1.000000" stroke="none" 
	d="
M228.625427,639.691162 
	C226.464569,640.259521 224.678162,640.649780 222.925079,641.155579 
	C219.740173,642.074524 215.440521,642.138611 213.706329,644.269043 
	C211.799011,646.612122 214.685822,650.403442 215.413269,653.563171 
	C215.894516,655.653442 215.821716,656.744080 213.502563,657.007019 
	C212.853485,657.080627 212.231659,657.382568 211.593521,657.566528 
	C205.359726,659.363403 205.359512,659.362671 203.597153,653.016663 
	C201.909302,646.938965 201.909302,646.938965 195.637894,648.679382 
	C185.429642,651.512329 185.509796,651.493835 183.103180,641.063782 
	C182.559799,638.708801 183.129349,637.752319 185.378708,637.239685 
	C188.776169,636.465393 192.110672,635.416748 195.503815,634.620728 
	C197.754059,634.092773 198.364822,633.155334 197.602478,630.793945 
	C196.074310,626.060181 195.108551,621.143188 193.540344,616.424866 
	C192.626434,613.675049 193.140457,612.416443 196.013123,611.993958 
	C197.646301,611.753784 199.267715,611.300476 200.832886,610.763733 
	C202.904770,610.053223 203.726532,610.703552 204.234726,612.836426 
	C205.427292,617.841370 206.983765,622.758362 208.257156,627.745728 
	C208.850204,630.068359 209.718094,630.828674 212.309204,630.079895 
	C224.111954,626.669067 236.028625,623.650757 247.820587,620.204773 
	C258.995178,616.939148 261.538574,607.935852 254.142303,598.682617 
	C253.027115,597.287476 250.340927,595.728088 253.688751,594.298523 
	C256.432220,593.127014 257.837555,586.632324 262.321960,591.622253 
	C269.104706,599.169678 271.757446,608.142090 269.509277,617.990723 
	C267.460571,626.965515 260.383850,630.972839 252.071213,633.218689 
	C244.375946,635.297791 236.699570,637.446838 228.625427,639.691162 
z"/>
<path fill="#040404" opacity="1.000000" stroke="none" 
	d="
M196.372894,386.603210 
	C213.701996,395.282501 230.714249,403.761932 248.813126,412.782928 
	C245.805588,402.117706 243.129059,392.591858 240.430878,383.072174 
	C239.027451,378.120697 238.164673,372.913696 236.037613,368.291534 
	C231.944611,359.397278 236.763718,352.948944 241.187637,345.117798 
	C245.329987,357.929443 249.454300,369.774475 252.899826,381.813782 
	C254.183578,386.299408 256.071167,386.829620 260.143311,385.930725 
	C276.175018,382.391968 292.272736,379.152313 309.110077,375.642334 
	C307.393768,381.146667 304.757233,385.426056 302.435242,389.829163 
	C301.723114,391.179535 300.098541,390.882446 298.827606,391.160583 
	C286.819885,393.788879 274.828308,396.495087 262.793335,398.992188 
	C259.519836,399.671417 258.590881,400.413208 259.263916,404.339600 
	C261.312927,416.293060 266.910583,424.714752 279.027222,427.984833 
	C282.498962,428.921814 282.206146,430.806976 280.831390,433.554260 
	C276.574829,442.060272 276.689728,442.065460 268.035004,437.724915 
	C240.889465,424.110931 213.756332,410.471313 186.533203,397.013947 
	C183.118347,395.325867 181.946991,393.748596 184.430283,390.545959 
	C184.531448,390.415497 184.608597,390.264130 184.683090,390.115540 
	C188.441284,382.619995 188.441101,382.619904 196.372894,386.603210 
z"/>
<path fill="#050505" opacity="1.000000" stroke="none" 
	d="
M469.922516,912.090332 
	C461.442322,910.761353 453.410034,909.398621 445.346558,908.256104 
	C443.108215,907.938965 442.381226,907.511230 442.700745,904.925598 
	C443.827942,895.802734 443.694397,895.648438 452.745117,896.998535 
	C466.718597,899.083069 480.678619,901.272217 494.605042,903.647583 
	C498.234528,904.266602 499.848877,903.975586 500.285217,899.649353 
	C501.151215,891.063110 502.497223,882.488708 504.301941,874.049866 
	C505.141998,870.121887 503.512054,869.661499 500.578278,869.217346 
	C487.266296,867.201904 473.998627,864.856323 460.648071,863.154907 
	C456.311432,862.602234 455.427948,861.186768 456.252838,857.205261 
	C457.731873,850.066589 457.553040,850.123291 464.881348,851.315491 
	C477.843048,853.424255 490.840729,855.316650 503.783936,857.529968 
	C506.262024,857.953674 506.845795,857.512085 507.192474,855.088013 
	C508.721985,844.393799 510.584625,833.747375 512.116394,823.053467 
	C512.619141,819.543640 513.479614,818.121216 517.625854,818.841980 
	C527.261963,820.517151 527.162048,820.193115 525.614075,829.788513 
	C521.060303,858.015747 516.528687,886.247925 512.295410,914.524170 
	C511.725769,918.328979 510.383118,918.573242 507.288635,918.054260 
	C494.993805,915.992249 482.671051,914.096863 469.922516,912.090332 
z"/>
<path fill="#050505" opacity="1.000000" stroke="none" 
	d="
M398.515900,789.393066 
	C397.921844,790.605835 397.531891,791.509155 396.867615,793.047852 
	C409.683899,787.366943 421.204590,789.781372 431.889374,797.265991 
	C443.149597,805.153625 447.384735,816.667664 442.901001,829.631775 
	C437.580536,845.015137 429.369873,859.176697 422.777985,874.034851 
	C422.644836,874.334961 422.464600,874.808044 422.244019,874.846863 
	C417.839264,875.622864 414.975006,872.035767 411.231354,870.873169 
	C408.811554,870.121582 410.372711,868.452332 410.936737,867.242004 
	C415.983917,856.411682 421.050751,845.590454 426.170105,834.794128 
	C427.740265,831.482849 429.292572,828.167053 429.950165,824.545227 
	C431.552765,815.719055 428.256531,809.035278 420.228210,804.610291 
	C410.466431,799.229858 400.943237,799.826904 393.795197,806.242371 
	C390.248688,809.425232 387.972046,813.457947 385.983337,817.700134 
	C381.261963,827.771606 376.401672,837.780640 371.867645,847.935486 
	C370.512421,850.970764 369.317352,851.353760 366.351135,849.907349 
	C357.717957,845.697693 357.661835,845.848328 361.698761,837.283752 
	C370.473816,818.667053 379.314880,800.080627 387.919403,781.385315 
	C389.382507,778.206421 390.774658,777.350586 393.653351,779.413696 
	C394.180847,779.791687 394.862732,779.947449 395.453552,780.245117 
	C402.364288,783.727173 401.696167,782.043091 398.515900,789.393066 
z"/>
<path fill="#050505" opacity="1.000000" stroke="none" 
	d="
M791.749023,391.130646 
	C793.957214,397.278473 799.200500,400.023071 804.775940,401.837860 
	C808.139282,402.932617 808.246582,404.097961 807.246155,407.073700 
	C804.618958,414.887970 804.781982,414.942719 797.156555,411.716492 
	C781.334229,405.022278 769.392883,383.384552 772.277893,366.636383 
	C775.256897,349.342255 790.876099,335.647797 809.252319,334.218109 
	C826.239929,332.896484 842.643433,345.219910 847.635925,363.054596 
	C852.126892,379.097626 843.680359,397.276245 828.439026,405.141113 
	C825.140198,406.843414 824.788513,404.567322 823.743530,402.886017 
	C814.354736,387.779938 804.996338,372.654968 795.622314,357.539703 
	C795.102051,356.700775 794.522705,355.898468 793.979614,355.092072 
	C784.272827,360.158142 780.217224,377.954865 791.376587,391.409027 
	C791.702332,391.248505 791.846436,391.068909 791.749023,391.130646 
z"/>
<path fill="#040404" opacity="1.000000" stroke="none" 
	d="
M769.789307,338.003479 
	C754.662598,342.388519 740.933777,339.478088 728.463196,331.298828 
	C714.528564,322.159271 702.837830,310.148804 689.931213,299.678406 
	C687.121704,297.399170 689.891174,296.183167 690.932495,294.949432 
	C705.952148,277.155090 721.053650,259.429810 736.132568,241.685532 
	C740.872620,236.107574 745.652771,230.562607 750.312256,224.918091 
	C751.875061,223.024918 752.972107,222.647415 755.064087,224.470810 
	C765.595581,233.650284 776.665894,242.242065 786.849854,251.784363 
	C823.735779,286.346771 799.825500,328.534180 769.789307,338.003479 
z"/>
<path fill="#050505" opacity="1.000000" stroke="none" 
	d="
M612.099731,186.065430 
	C610.733765,191.411423 609.439148,196.353470 608.046265,201.670761 
	C627.128418,188.973679 651.703979,199.580032 660.103210,214.498856 
	C669.928040,231.949951 663.559509,257.162231 646.470825,267.781311 
	C631.500732,277.083893 604.980408,274.306122 594.302124,253.705994 
	C593.522095,253.822418 593.286011,254.381805 593.102905,255.056656 
	C590.723999,263.825714 588.283386,264.853607 580.102539,260.875092 
	C577.374390,259.548340 578.978699,257.689545 579.359680,256.238708 
	C584.039185,238.415894 588.863770,220.631271 593.612122,202.826416 
	C597.205933,189.350647 600.826782,175.880951 604.245483,162.360474 
	C605.042542,159.208069 606.231934,158.537796 609.388000,159.426727 
	C618.438232,161.975769 618.486450,161.831604 616.140320,170.749832 
	C614.831726,175.724197 613.494995,180.691162 612.099731,186.065430 
z"/>
<path fill="#060606" opacity="1.000000" stroke="none" 
	d="
M830.997314,528.863464 
	C831.403503,537.670715 834.422058,544.827209 840.823914,550.432312 
	C840.198914,551.161926 839.696350,551.825989 839.116577,552.413818 
	C832.083008,559.544312 831.556824,559.489258 825.868530,551.241455 
	C813.644226,533.517151 815.761902,496.959015 846.663696,488.575745 
	C864.491089,483.739441 883.030396,491.065399 891.247253,506.444580 
	C899.622192,522.119629 896.341187,541.888733 883.451050,552.928284 
	C876.494202,558.886353 868.292297,561.545715 859.209229,562.107056 
	C855.619934,562.328735 854.356323,561.487000 854.232178,557.647522 
	C853.667114,540.179260 852.762085,522.721985 851.969971,505.261200 
	C851.911255,503.966278 851.778076,502.674713 851.678650,501.370667 
	C838.596069,503.490204 831.155090,513.301147 830.997314,528.863464 
z"/>
<path fill="#050505" opacity="1.000000" stroke="none" 
	d="
M258.814789,498.808899 
	C257.180878,497.874542 256.820282,499.523010 256.095825,500.128693 
	C240.120346,513.485779 215.897369,512.036255 202.012558,496.832489 
	C188.792648,482.356781 189.492065,456.225800 203.496841,442.160248 
	C204.430893,441.222168 205.473038,440.376526 206.537964,439.586395 
	C214.699661,433.530731 217.529572,434.773041 219.305115,444.772736 
	C219.737305,447.206696 218.050827,447.144928 216.964630,447.808411 
	C205.445862,454.844208 201.088211,469.974121 207.230438,481.786011 
	C213.334610,493.524719 230.194565,499.094299 242.786789,493.531799 
	C254.543198,488.338501 260.677551,473.339996 256.007874,461.161835 
	C255.594177,460.082947 254.951630,459.087799 254.579880,457.997681 
	C253.853043,455.866394 250.321701,454.507629 251.545670,452.313751 
	C253.110901,449.508209 255.862549,447.297607 258.330902,445.084961 
	C260.183472,443.424316 260.912598,445.767059 261.683624,446.664154 
	C270.722748,457.181152 271.238647,469.199127 267.557007,481.847229 
	C265.764618,488.005066 262.499573,493.375458 258.460327,498.458252 
	C258.685028,498.768860 258.887573,498.907806 258.814789,498.808899 
z"/>
<path fill="#050505" opacity="1.000000" stroke="none" 
	d="
M251.658295,734.181763 
	C236.213043,745.093567 221.669495,739.719910 212.058853,728.283203 
	C202.613693,717.043518 197.185837,704.059509 196.733963,689.156189 
	C196.619843,685.392944 197.732025,683.969360 201.682281,683.897888 
	C208.720444,683.770447 208.550674,683.523682 209.078735,690.371704 
	C209.958420,701.779358 213.694473,712.132690 221.562485,720.645447 
	C227.911575,727.514832 234.920898,728.304504 242.628220,723.073608 
	C246.745102,719.250793 246.850159,714.617920 246.388565,709.910583 
	C245.476425,700.608276 242.015961,691.843689 240.504410,682.663208 
	C239.776917,678.244690 238.907867,673.862671 239.307587,669.313721 
	C241.014679,649.886658 263.344452,641.683228 278.113892,651.505432 
	C290.583374,659.798035 296.926758,672.210449 300.899414,686.074646 
	C302.879669,692.985657 303.734070,700.101135 302.544464,707.285828 
	C302.336365,708.542908 302.587402,710.561768 300.309814,710.550171 
	C297.036041,710.533447 293.647614,711.834106 290.541504,710.207642 
	C289.570465,709.699158 290.281372,708.042358 290.399963,706.908875 
	C291.872955,692.827698 287.817505,680.309143 279.524017,669.061218 
	C277.248962,665.975708 274.454987,663.372925 270.791382,661.841492 
	C262.149750,658.229309 253.520279,663.549561 252.939499,672.879272 
	C252.495987,680.003784 254.848190,686.650574 256.415283,693.427429 
	C258.135406,700.866089 260.341431,708.221863 260.089569,715.975952 
	C259.858185,723.098877 257.663116,729.340637 251.658295,734.181763 
z"/>
<path fill="#050505" opacity="1.000000" stroke="none" 
	d="
M506.431702,195.896667 
	C507.510864,194.788193 508.401978,193.958191 509.483459,192.889984 
	C525.256714,180.212845 547.323730,182.080811 559.334839,193.132462 
	C567.827942,200.947067 571.210876,210.856812 571.837952,222.064468 
	C572.022461,225.360596 570.847961,226.264755 567.607727,226.302551 
	C550.130005,226.506424 532.656006,227.083282 515.178467,227.210571 
	C510.637878,227.243652 510.244049,228.673996 511.612762,232.469040 
	C517.606750,249.088974 541.182739,254.617645 556.193420,242.905563 
	C557.455139,241.921036 558.572937,239.133636 560.356018,240.529114 
	C562.907715,242.526199 565.051514,245.238052 566.758667,248.019592 
	C567.390930,249.049728 565.298645,250.415985 564.200989,251.342194 
	C552.532837,261.188049 538.983032,263.053345 524.784058,259.317444 
	C496.857330,251.969589 487.509583,219.587372 506.431702,195.896667 
z"/>
<path fill="#050505" opacity="1.000000" stroke="none" 
	d="
M833.120300,425.181458 
	C841.801514,419.361420 849.077942,411.828156 857.126953,405.219696 
	C860.454163,402.487946 863.667114,399.617065 867.520813,396.303162 
	C868.858032,400.593628 870.018555,404.432434 871.255737,408.246429 
	C872.075562,410.773895 869.799438,411.355377 868.570862,412.410767 
	C854.808960,424.231812 840.977600,435.972015 827.172363,447.742737 
	C825.686279,449.009766 824.247009,450.331696 822.055847,452.276123 
	C829.815613,453.206665 836.679443,454.079559 843.555237,454.843628 
	C856.781067,456.313385 870.009216,457.766083 883.247375,459.118744 
	C886.006836,459.400696 887.866394,460.103668 888.410889,463.266113 
	C888.906677,466.145416 890.067383,468.910187 891.120972,472.328949 
	C879.238037,471.030762 867.859131,469.805420 856.484619,468.540466 
	C842.765137,467.014648 829.065735,465.277222 815.322327,464.016571 
	C811.098450,463.629150 809.273254,462.106201 807.740967,458.058929 
	C805.464355,452.045502 806.360291,448.310516 811.667542,444.366669 
	C819.260986,438.723907 826.105713,432.073517 833.247131,425.516418 
	C833.224121,425.179382 833.088501,425.113007 833.120300,425.181458 
z"/>
<path fill="#050505" opacity="1.000000" stroke="none" 
	d="
M276.788513,820.184448 
	C273.960571,817.137878 268.942688,814.882202 269.139618,811.745178 
	C269.324066,808.807312 273.727875,806.088013 276.363037,803.357605 
	C297.053650,781.920166 317.808563,760.544312 338.410767,739.022339 
	C340.729004,736.600586 341.898621,736.276062 344.418854,738.831909 
	C351.076202,745.583374 351.241821,745.450745 344.727905,752.199829 
	C323.459442,774.236145 302.190887,796.272400 280.862427,818.250549 
	C279.886139,819.256531 279.346375,821.537842 276.788513,820.184448 
z"/>
<path fill="#050505" opacity="1.000000" stroke="none" 
	d="
M340.522125,815.509277 
	C332.178162,826.525574 323.991608,837.212585 316.009979,848.050476 
	C314.315460,850.351379 313.298615,850.462402 311.037781,848.748230 
	C302.952240,842.617676 302.866730,842.705872 308.998627,834.595032 
	C327.035492,810.737183 345.149963,786.937439 363.051392,762.978394 
	C365.658661,759.488831 367.370361,758.670776 371.027313,761.736511 
	C377.285492,766.982849 377.478119,766.721802 372.644806,773.098511 
	C362.004669,787.136475 351.382294,801.187866 340.522125,815.509277 
z"/>
<path fill="#060606" opacity="1.000000" stroke="none" 
	d="
M665.027466,790.081848 
	C673.733215,785.934509 673.754761,785.924377 677.614075,794.132324 
	C686.361328,812.736206 695.015137,831.384460 703.885315,849.929443 
	C705.418274,853.134460 705.331970,854.617493 701.729187,856.144104 
	C693.902649,859.460327 694.006714,859.688110 690.340759,852.181274 
	C689.928223,851.336609 689.953064,850.127930 688.411133,849.906555 
	C686.858582,859.910278 680.329651,866.062927 671.948425,870.770203 
	C670.201050,871.751587 669.090271,871.798340 668.232422,869.688843 
	C667.048401,866.777405 664.564514,863.937012 664.618896,861.104187 
	C664.677124,858.070496 669.031860,857.903809 671.335999,856.220215 
	C680.399414,849.597290 683.255798,839.760315 678.368652,828.316895 
	C673.554443,817.044189 668.216980,805.989624 662.890625,794.944702 
	C661.621094,792.312256 662.053589,791.031433 665.027466,790.081848 
z"/>
<path fill="#050505" opacity="1.000000" stroke="none" 
	d="
M862.845459,614.214355 
	C862.288391,615.921997 863.893860,616.082092 864.633911,616.710815 
	C878.547363,628.530823 881.839539,646.509949 873.280151,664.308289 
	C865.877808,679.700623 849.671570,688.497498 834.069275,685.592163 
	C814.231018,681.898071 801.107544,668.500610 800.441589,649.782654 
	C799.898926,634.531738 805.922119,621.683960 818.926086,613.170654 
	C831.470947,604.957886 844.700378,605.798218 857.825134,612.230591 
	C859.312561,612.959473 860.702209,613.887817 862.472900,614.527466 
	C862.808594,614.331177 862.931824,614.141418 862.845459,614.214355 
z"/>
<path fill="#050505" opacity="1.000000" stroke="none" 
	d="
M836.679504,576.200195 
	C863.593750,580.187439 890.057678,584.223206 916.569824,587.912170 
	C921.236694,588.561523 922.762939,589.779480 921.629028,594.670654 
	C919.874512,602.238220 920.197876,602.280823 912.650940,601.177490 
	C882.213135,596.727722 851.776123,592.271423 821.326965,587.900208 
	C817.886414,587.406311 815.198547,586.851624 816.874878,582.357727 
	C817.325867,581.148804 817.322876,579.734314 817.350769,578.410400 
	C817.440552,574.152283 819.544922,573.306946 823.429626,574.184570 
	C827.633606,575.134277 831.968018,575.506592 836.679504,576.200195 
z"/>
<path fill="#080808" opacity="1.000000" stroke="none" 
	d="
M601.854370,827.578491 
	C599.316223,831.628601 595.938232,833.456299 591.562988,832.754639 
	C587.781372,832.148254 585.258240,829.720764 584.289429,826.058960 
	C583.128113,821.669678 584.076660,817.694458 588.040100,815.083252 
	C591.546082,812.773499 595.375427,812.770203 598.749390,815.317444 
	C602.768738,818.351807 603.970581,822.418396 601.854370,827.578491 
z"/>
<path fill="#080808" opacity="1.000000" stroke="none" 
	d="
M332.049988,349.904053 
	C325.332428,348.461121 321.896790,344.680725 322.293274,339.583099 
	C322.658112,334.892303 326.316101,331.043549 330.822449,330.609009 
	C335.267212,330.180420 339.718750,333.210297 341.105469,337.608093 
	C342.532990,342.135193 340.587646,346.787201 336.246857,348.880035 
	C335.081970,349.441681 333.715118,349.584412 332.049988,349.904053 
z"/>
<path fill="#F5F5F5" opacity="1.000000" stroke="none" 
	d="
M818.108154,741.915283 
	C810.167175,754.043823 799.003906,758.221741 787.123108,753.785400 
	C775.146362,749.313232 766.964539,737.263489 768.589050,725.990540 
	C770.146606,715.181641 776.103271,707.632263 786.549561,704.165405 
	C796.302429,700.928650 808.233276,704.992004 815.446228,714.072021 
	C822.152466,722.514160 823.201538,731.806152 818.108154,741.915283 
z"/>
<path fill="#F6F6F6" opacity="1.000000" stroke="none" 
	d="
M832.049255,724.921570 
	C831.865417,724.930542 831.663635,724.989502 831.459229,725.000366 
	C831.425598,725.002197 831.380737,724.793335 831.341003,724.681885 
	C831.518494,724.632568 831.696045,724.583313 831.929138,724.776001 
	C831.984741,725.018005 832.030396,724.955444 832.049255,724.921570 
z"/>
<path fill="#F3F3F3" opacity="1.000000" stroke="none" 
	d="
M725.255798,804.320068 
	C734.964905,796.759644 744.454346,789.506409 753.781860,782.050598 
	C756.359680,779.990112 757.538391,779.842834 758.954834,783.221130 
	C763.532104,794.138611 759.937378,805.776733 749.503113,812.781738 
	C739.660706,819.389465 727.742432,818.045837 719.147949,809.163330 
	C721.105042,807.614197 723.040039,806.082520 725.255798,804.320068 
z"/>
<path fill="#F2F2F2" opacity="1.000000" stroke="none" 
	d="
M250.248993,549.971497 
	C252.285522,556.024536 252.609619,561.767761 250.715805,567.490112 
	C249.023682,572.603149 245.022293,575.372375 239.818405,575.391663 
	C234.648392,575.410889 231.255753,572.849792 229.738342,568.059265 
	C226.775864,558.706543 227.942810,548.925354 227.058685,539.353210 
	C226.861069,537.213623 228.688812,537.740234 229.858902,537.517639 
	C240.078583,535.573608 245.417038,540.740906 249.071823,547.339722 
	C249.472702,548.063477 249.769394,548.844971 250.248993,549.971497 
z"/>
<path fill="#F5F5F5" opacity="1.000000" stroke="none" 
	d="
M803.601257,348.725586 
	C815.930969,344.591919 826.258911,347.943115 832.770020,357.875977 
	C839.124695,367.570007 838.285400,379.062195 830.811890,387.329224 
	C828.562805,389.817139 827.294617,390.473694 825.213379,386.963684 
	C818.523560,375.681183 811.450928,364.626221 804.632812,353.418488 
	C803.842285,352.118958 801.914429,350.956604 803.601257,348.725586 
z"/>
<path fill="#F5F5F5" opacity="1.000000" stroke="none" 
	d="
M746.440674,251.434326 
	C749.818176,248.046463 751.880066,242.019821 755.659973,241.974976 
	C758.939514,241.936020 762.291016,246.927063 765.589233,249.720337 
	C770.918640,254.233826 776.600281,258.391693 781.205688,263.671875 
	C790.709045,274.567719 794.976746,287.024994 789.421021,300.980865 
	C783.686890,315.384430 773.318787,324.938110 757.196655,326.369293 
	C746.759155,327.295868 737.585449,323.472961 729.556946,317.020233 
	C722.817566,311.603607 716.420044,305.761169 709.668884,300.359985 
	C707.202820,298.387024 707.368225,297.289886 709.333496,295.013458 
	C721.723694,280.661469 733.933533,266.153870 746.440674,251.434326 
z"/>
<path fill="#F5F5F5" opacity="1.000000" stroke="none" 
	d="
M608.034424,253.995331 
	C595.764160,242.948502 598.985840,224.670456 607.280640,215.353134 
	C615.654480,205.947128 630.754456,204.810532 641.323914,212.712158 
	C652.752441,221.256027 654.426758,238.267303 645.063232,250.704453 
	C636.347107,262.281708 620.838440,263.765991 608.034424,253.995331 
z"/>
<path fill="#F6F6F6" opacity="1.000000" stroke="none" 
	d="
M863.176025,537.820190 
	C862.709778,526.557373 862.500488,515.752014 861.719177,504.988220 
	C861.389465,500.445831 863.196045,500.495483 866.496155,501.365021 
	C877.649109,504.303772 884.412964,513.633057 884.179382,525.918640 
	C883.959229,537.492859 876.565186,545.961487 863.976868,548.692383 
	C863.716003,545.192993 863.458862,541.743713 863.176025,537.820190 
z"/>
<path fill="#F4F4F4" opacity="1.000000" stroke="none" 
	d="
M547.002197,198.847961 
	C552.711548,202.277939 555.996338,207.111328 557.818604,213.020309 
	C558.573975,215.469818 558.383850,216.940826 555.034058,216.965912 
	C541.247253,217.069168 527.459534,217.348572 513.679077,217.783081 
	C510.434479,217.885376 510.274933,216.810165 510.828918,214.080505 
	C513.973938,198.584320 531.232056,191.110931 547.002197,198.847961 
z"/>
<path fill="#F5F5F5" opacity="1.000000" stroke="none" 
	d="
M823.286743,666.791504 
	C812.664856,658.251404 809.818481,647.007935 815.114319,635.475586 
	C819.847412,625.168518 830.585632,619.402344 841.703125,621.197876 
	C855.170837,623.372925 864.572083,632.656677 865.703735,644.898560 
	C867.307861,662.253174 851.155762,675.873413 834.045410,671.566956 
	C830.315308,670.628052 826.819275,669.100586 823.286743,666.791504 
z"/>
<path fill="#47704C" opacity="1.000000" stroke="none" 
	d="
M775.766785,739.413879 
	C772.374573,737.911499 771.606873,735.520325 771.996704,732.397522 
	C772.180542,730.924744 772.235168,729.375427 771.991699,727.920410 
	C771.023804,722.135315 773.424255,717.916199 778.156616,715.016235 
	C779.859497,713.972656 779.166016,712.196655 780.423279,710.766357 
	C784.063110,706.625610 789.906494,708.820801 793.401245,705.141113 
	C793.896179,704.619873 795.547791,704.710938 796.106018,706.353638 
	C796.668396,708.008362 798.298218,708.190491 799.861755,708.020874 
	C804.293884,707.539734 807.384155,709.491760 809.072327,713.455444 
	C809.872192,715.333435 812.022827,714.457031 812.967590,716.018005 
	C814.407898,718.397644 816.255737,720.211670 816.365479,723.566406 
	C816.424072,725.357544 819.716064,727.117859 819.001770,730.199402 
	C817.656738,736.001709 816.258118,741.840820 810.585693,744.994263 
	C808.755066,746.011963 808.843201,747.828979 807.719238,749.124207 
	C803.500732,753.985535 798.167358,750.896790 793.541504,752.050781 
	C789.019836,753.178772 786.760010,747.956848 782.559143,748.679749 
	C782.190002,744.355042 777.236938,743.425354 775.766785,739.413879 
z"/>
<path fill="#47704C" opacity="1.000000" stroke="none" 
	d="
M740.455322,796.365784 
	C745.765625,794.840271 748.689148,790.744202 752.117554,787.453308 
	C753.759155,785.877563 755.376892,785.834167 757.081604,786.177307 
	C759.213684,786.606567 759.061768,788.564270 758.950378,790.225159 
	C758.731018,793.496948 759.988159,796.944519 755.765259,799.322632 
	C753.962097,800.338013 754.403381,804.103699 752.437317,806.443726 
	C749.502441,809.937073 745.701538,811.726257 741.836182,812.750244 
	C738.107910,813.737915 733.893127,812.724121 729.930481,813.052795 
	C727.498047,813.254578 726.787903,811.677307 725.930237,810.254150 
	C724.808228,808.392334 727.130737,808.477478 727.799622,807.829956 
	C731.792175,803.964600 736.003296,800.325012 740.455322,796.365784 
z"/>
<path fill="#47704C" opacity="1.000000" stroke="none" 
	d="
M230.004166,548.120972 
	C228.779984,545.532898 228.096893,543.187500 230.329651,541.455261 
	C232.686523,539.626770 235.449142,539.376526 238.131866,541.091309 
	C246.146332,546.214172 250.312195,553.179932 249.011703,563.003479 
	C248.519012,566.725098 242.696457,573.023621 239.277267,572.963074 
	C235.946106,572.904053 232.024292,569.004395 232.064087,565.559570 
	C232.130753,559.789795 232.094086,554.052490 230.004166,548.120972 
z"/>
<path fill="#47704C" opacity="1.000000" stroke="none" 
	d="
M832.971802,375.792542 
	C834.709900,380.022369 830.123474,380.918488 829.516785,383.685883 
	C829.400757,384.215210 828.028076,383.615540 827.498169,382.925232 
	C826.013733,380.991638 824.431458,379.117279 823.117798,377.071838 
	C820.348999,372.760895 818.012085,368.134460 814.889282,364.109772 
	C813.803833,362.710785 812.997803,361.684387 812.998108,359.969757 
	C812.998230,359.338654 812.787781,358.181549 812.562744,358.153564 
	C807.508606,357.524994 809.746887,353.057220 808.402588,350.265564 
	C815.242920,349.448730 820.351318,351.596802 826.356323,355.627594 
	C834.716675,361.239380 832.435730,368.272705 832.971802,375.792542 
z"/>
<path fill="#47704C" opacity="1.000000" stroke="none" 
	d="
M738.232788,265.546509 
	C742.941040,260.212708 747.483337,255.235001 752.067200,250.295837 
	C753.265198,249.004852 754.809143,246.662476 755.815613,246.848755 
	C757.983948,247.250076 760.384155,248.566574 761.837036,250.245972 
	C765.705811,254.717743 770.161926,258.426605 774.698669,262.159851 
	C777.539856,264.497894 779.823364,267.662659 781.819275,270.798798 
	C782.524048,271.906311 782.455872,273.194550 784.211975,273.065033 
	C784.653076,273.032471 785.522400,273.398102 785.513550,273.441162 
	C784.746826,277.183807 788.472900,279.214813 788.943726,282.413391 
	C790.404541,292.336853 787.827515,301.516388 781.653564,309.050079 
	C778.600647,312.775391 775.468323,317.151428 771.270996,319.556946 
	C763.793518,323.842377 755.003601,324.248413 746.957520,322.568726 
	C742.259888,321.588074 736.867981,319.197601 733.049866,316.023682 
	C728.851501,312.533691 724.708435,308.801086 720.725830,304.993774 
	C718.924561,303.271820 716.162354,303.881409 714.647827,300.896484 
	C713.303589,298.247070 711.320496,297.315063 714.873779,294.869537 
	C717.275085,293.216797 719.273926,290.458801 720.528320,287.764740 
	C723.455566,281.477814 728.942200,277.622284 733.342590,272.715302 
	C735.089294,270.767609 738.199219,269.317078 738.232788,265.546509 
z"/>
<path fill="#47704C" opacity="1.000000" stroke="none" 
	d="
M635.127075,212.638657 
	C640.536621,214.401947 641.923828,220.254181 646.528259,222.393951 
	C647.009521,222.617615 646.944153,224.241821 646.953552,225.217926 
	C646.995422,229.549362 646.927246,233.882004 646.983459,238.213120 
	C647.059387,244.063400 642.886536,247.640503 639.952454,251.959381 
	C636.568054,256.941040 630.043518,257.720428 626.441711,257.168549 
	C622.375366,256.545471 616.287842,258.765869 612.896240,252.843048 
	C611.535889,250.467438 608.618103,247.965164 606.148743,246.282501 
	C602.934265,244.092056 603.007385,241.616287 603.023560,238.648575 
	C603.041748,235.316498 602.999084,231.983902 603.038940,228.652191 
	C603.059387,226.942902 602.409790,224.730331 605.485046,224.988434 
	C606.476624,225.071655 606.759399,224.399216 607.030884,223.488281 
	C610.341187,212.380264 617.460815,210.879562 628.410217,211.764999 
	C630.545166,211.937668 632.676086,212.161316 635.127075,212.638657 
z"/>
<path fill="#47704C" opacity="1.000000" stroke="none" 
	d="
M867.025696,530.084229 
	C866.478577,523.089233 866.383057,516.543945 865.181152,510.083557 
	C864.941528,508.795563 863.867615,506.670349 866.491760,506.038086 
	C867.821594,505.717712 876.129272,509.466522 876.832886,510.642273 
	C881.258301,518.037415 880.743835,526.043884 880.058167,534.164246 
	C879.860291,536.507996 877.277832,535.441345 877.174561,536.714111 
	C876.922852,539.818176 871.934387,539.026123 872.584961,542.637085 
	C871.113342,542.722839 869.618530,543.009094 868.176025,542.842651 
	C866.437134,542.641968 867.085999,541.056946 867.058289,540.037476 
	C866.972717,536.883667 867.026184,533.726135 867.025696,530.084229 
z"/>
<path fill="#47704C" opacity="1.000000" stroke="none" 
	d="
M515.084229,213.262177 
	C517.157288,207.831528 520.500671,204.462006 525.299805,201.502960 
	C529.041077,199.196182 532.251953,197.778214 536.499268,197.994522 
	C542.418762,198.296005 552.131287,206.425446 553.497437,211.873764 
	C554.056335,214.102600 553.111877,214.877640 551.654663,214.871582 
	C539.552002,214.821274 527.442261,215.430588 515.348938,214.569611 
	C515.235840,214.561569 515.162292,213.998337 515.084229,213.262177 
z"/>
<path fill="#47704C" opacity="1.000000" stroke="none" 
	d="
M858.107422,633.976135 
	C861.613281,639.371155 865.351990,645.427429 862.571716,651.091248 
	C860.392578,655.530457 861.316284,662.886108 853.939880,664.069031 
	C853.076416,671.578857 843.896240,664.726196 842.150146,670.835754 
	C842.121582,670.935547 840.701721,670.950928 840.343323,670.592957 
	C837.741760,667.994873 834.218384,668.677429 831.250244,667.688049 
	C828.440735,666.751465 825.685852,664.514648 823.168579,662.638245 
	C816.535522,657.693726 815.681030,650.364685 815.939331,642.572021 
	C816.185730,635.137207 821.498901,631.203064 826.244446,627.282349 
	C829.466858,624.619995 833.879578,623.502930 838.674927,623.867371 
	C845.350159,624.374451 850.605774,628.014099 856.427734,630.399841 
	C857.712158,630.926208 856.339050,633.042908 858.107422,633.976135 
z"/>
</svg>